<svg fill="#fff" width="24px" height="24px" xmlns="http://www.w3.org/2000/svg">
 <path d="m14.474 14.013c0 0.19789-2.1389 3.3095-2.1389 3.3095l-0.93895 2.2063c-0.19239 0.4479-0.47971 0.8487-0.8421 1.1747l-2.7789 2.56c-0.51559 0.44572-1.2882 0.41629-1.7684-0.06737-0.49373-0.50416-0.49373-1.3106 0-1.8147l2.5263-2.7579c0.30679-0.34206 0.54035-0.74327 0.68632-1.1789l1.0442-3.1284z"/>
 <path d="m14.474 10.004v4.0126c-4.08e-4 0.19609 0.04577 0.38947 0.13474 0.56421l3.9537 7.2463c0.29858 0.5523 0.11377 1.2417-0.42105 1.5705-0.5226 0.32878-1.2102 0.20044-1.5789-0.29474l-4.2274-5.7811-2.0716-3.0063v-5.0526l-1.1453 0.9179c-0.61949 0.4951-1.0444 1.1929-1.2 1.9705l-0.35789 1.7684c-0.060287 0.29284-0.25301 0.54114-0.52172 0.6722s-0.58303 0.13006-0.85091-0.0027c-0.33132-0.16526-0.51586-0.5275-0.45474-0.89266l0.53053-3.1705c0.13622-0.81814 0.5695-1.5573 1.2168-2.0758l2.4379-1.9495c0.49743-0.3963 1.1156-0.61028 1.7516-0.60641 0.23366-0.00127 0.46714 0.012796 0.69895 0.042195 1.0358 0.13895 1.8105 1.2253 1.8105 1.2253l0.9179 1.1453c0.4951 0.61949 1.1929 1.0444 1.9705 1.2l1.7684 0.35789c0.29548 0.055212 0.5483 0.24506 0.68372 0.51342 0.13542 0.26836 0.13794 0.58452 0.0068 0.855-0.16523 0.33132-0.52748 0.51586-0.89263 0.45474l-3.1832-0.53053c-0.3245-0.05348-0.63942-0.1542-0.93474-0.29895"/>
 <path d="m17.421 16.842v0.8421c0 0.23254 0.18851 0.42105 0.42105 0.42105s0.42105-0.18851 0.42105-0.42105v-0.8421c0-0.23254-0.18851-0.42105-0.42105-0.42105s-0.42105 0.18851-0.42105 0.42105zm-16-0.42105c-0.23254 0-0.42105 0.18851-0.42105 0.42105v0.8421c0 0.23254 0.18851 0.42105 0.42105 0.42105 0.23254 0 0.42105-0.18851 0.42105-0.42105v-0.8421c0-0.23254-0.18851-0.42105-0.42105-0.42105zm2.1053 0c-0.23254 0-0.42105 0.18851-0.42105 0.42105v0.8421c0 0.23254 0.18851 0.42105 0.42105 0.42105 0.23254 0 0.42105-0.18851 0.42105-0.42105v-0.8421c0-0.23254-0.18851-0.42105-0.42105-0.42105zm2.1053 1.6842c0.23254 0 0.42105-0.18851 0.42105-0.42105v-0.8421c0-0.23254-0.18851-0.42105-0.42105-0.42105-0.23254 0-0.42105 0.18851-0.42105 0.42105v0.8421c0 0.23254 0.18851 0.42105 0.42105 0.42105zm14.316-1.6842c-0.23254 0-0.42105 0.18851-0.42105 0.42105v0.8421c0 0.23254 0.18851 0.42105 0.42105 0.42105s0.42105-0.18851 0.42105-0.42105v-0.8421c0-0.23254-0.18851-0.42105-0.42105-0.42105zm2.1053 0c-0.23254 0-0.42105 0.18851-0.42105 0.42105v0.8421c0 0.23254 0.18851 0.42105 0.42105 0.42105s0.42105-0.18851 0.42105-0.42105v-0.8421c0-0.23254-0.18851-0.42105-0.42105-0.42105zm-13.895 1.2632v-0.8421c0-0.23254-0.18851-0.42105-0.42105-0.42105s-0.42105 0.18851-0.42105 0.42105v0.8421c0 0.23254 0.18851 0.42105 0.42105 0.42105s0.42105-0.18851 0.42105-0.42105zm4.2105-12.632c1.3952 0 2.5263-1.1311 2.5263-2.5263s-1.1311-2.5263-2.5263-2.5263-2.5263 1.1311-2.5263 2.5263 1.1311 2.5263 2.5263 2.5263z"/>
</svg>
