<svg xmlns="http://www.w3.org/2000/svg" width="131.114" height="117.636" viewBox="0 0 131.114 117.636"><defs><style>.a{fill:#ff6d6d;}</style></defs><g transform="translate(0 -26.315)"><g transform="translate(0 26.315)"><g transform="translate(0 0)"><path class="a" d="M129.024,120.825l-50.115-86.8a15.417,15.417,0,0,0-26.7,0L2.09,120.825a15.417,15.417,0,0,0,13.352,23.126h100.23a15.417,15.417,0,0,0,13.352-23.126ZM122.371,132.4a7.657,7.657,0,0,1-6.7,3.868H15.442a7.736,7.736,0,0,1-6.7-11.6l50.115-86.8a7.736,7.736,0,0,1,13.4,0l50.115,86.8A7.658,7.658,0,0,1,122.371,132.4Z" transform="translate(0 -26.315)"/></g></g><g transform="translate(61.716 64.649)"><g transform="translate(0 0)"><rect class="a" width="7.681" height="38.408"/></g></g><g transform="translate(60.436 110.739)"><path class="a" d="M241.123,355.99a5.121,5.121,0,1,0,5.121,5.121A5.127,5.127,0,0,0,241.123,355.99Z" transform="translate(-236.002 -355.99)"/></g></g></svg>