<svg fill="#fff" width="24px" height="24px" xmlns="http://www.w3.org/2000/svg">
 <path d="m19.827 10.705c0 0.42905-0.34822 0.77727-0.77727 0.77727-0.42906 0-0.77727-0.34822-0.77727-0.77727 0-0.42906 0.34822-0.77727 0.77727-0.77727 0.42905 0 0.77727 0.34822 0.77727 0.77727zm-16.064-9.5864c-0.57237 0-1.0364 0.464-1.0364 1.0364 0 0.57237 0.464 1.0364 1.0364 1.0364s1.0364-0.464 1.0364-1.0364c0-0.57237-0.464-1.0364-1.0364-1.0364zm6.2182 0c-0.57237 0-1.0364 0.464-1.0364 1.0364 0 0.57237 0.464 1.0364 1.0364 1.0364s1.0364-0.464 1.0364-1.0364c0-0.57237-0.464-1.0364-1.0364-1.0364z"/>
 <path d="m23.995 11.319v3.9226l-1.8136 0.74618-0.37827 7.353h-5.4616l-0.15546-3.0417c0.95346-0.58555 1.6167-1.3525 2.0675-2.052 0.98973-1.5183 1.3369-3.2853 1.3369-4.3424v-1.0053c0.74618-0.22282 1.2955-0.91718 1.2955-1.7359 0-1.0001-0.81354-1.8136-1.8136-1.8136s-1.8136 0.81355-1.8136 1.8136c0 0.81873 0.54927 1.5131 1.2955 1.7359v1.0053c0 1.1245-0.51818 3.6791-2.4303 5.1766l-0.16064-3.0935-1.8136-0.74618v-3.9226c0-2.8034 2.2075-5.0782 4.9227-5.0782 2.7153 0 4.9227 2.2748 4.9227 5.0782zm-4.9227-10.26c-1.2878 0-2.3318 1.044-2.3318 2.3318s1.044 2.3318 2.3318 2.3318c1.2878 0 2.3318-1.044 2.3318-2.3318s-1.044-2.3318-2.3318-2.3318z"/>
 <path d="m6.3504 11.799a1 1 0 0 0-1 1c0 1.2708-0.043296 3.1155 0.81445 4.7793 0.85775 1.6638 2.7546 2.957 5.8203 2.957 2.665 0 4.4342-1.424 5.3574-2.9434 0.92321-1.5194 1.1484-3.0388 1.1484-3.8633a1 1 0 0 0-1-1 1 1 0 0 0-1 1c0 0.34866-0.19487 1.7338-0.85742 2.8242-0.66255 1.0904-1.6451 1.9824-3.6484 1.9824-2.5695 0-3.4919-0.80412-4.043-1.873-0.55106-1.0689-0.5918-2.5924-0.5918-3.8633a1 1 0 0 0-1-1z"/>
 <path d="m1 1.4141a1.0001 1.0001 0 0 0-1 1v4.1445c0 3.6884 3.0108 6.7012 6.6992 6.7012 3.6884 0 6.7012-3.0128 6.7012-6.7012v-4.1445a1.0001 1.0001 0 0 0-1-1h-2.5918a1 1 0 0 0-1 1 1 1 0 0 0 1 1h1.5918v3.1445c0 2.6075-2.0937 4.7012-4.7012 4.7012-2.6075 0-4.6992-2.0937-4.6992-4.7012v-3.1445h1.5918a1 1 0 0 0 1-1 1 1 0 0 0-1-1z"/>
</svg>
