<svg xmlns="http://www.w3.org/2000/svg" viewBox="0 0 145 145"><defs><style>.cls-1{fill:#ccc;}</style></defs><g id="Layer_2" data-name="Layer 2"><g id="Layer_1-2" data-name="Layer 1"><path class="cls-1" d="M128.00781,11.32812h-6.79687V0H109.88281V11.32812H35.11719V0H23.78906V11.32812H16.99219A16.99219,16.99219,0,0,0,0,28.32031v99.6875A16.99219,16.99219,0,0,0,16.99219,145H128.00781A16.99219,16.99219,0,0,0,145,128.00781V28.32031A16.99219,16.99219,0,0,0,128.00781,11.32812Zm0,122.34376H16.99219a5.66407,5.66407,0,0,1-5.66407-5.66407V53.24219H133.67188v74.76562A5.66407,5.66407,0,0,1,128.00781,133.67188Zm5.66407-91.75782H11.32812V28.32031a5.66407,5.66407,0,0,1,5.66407-5.66406h6.79687V33.98438H35.11719V22.65625h74.76562V33.98438h11.32813V22.65625h6.79687a5.66407,5.66407,0,0,1,5.66407,5.66406Z"/><rect class="cls-1" x="21.52344" y="65.13672" width="11.32813" height="11.32813"/><rect class="cls-1" x="44.17969" y="65.13672" width="11.32813" height="11.32813"/><rect class="cls-1" x="66.83594" y="65.13672" width="11.32813" height="11.32813"/><rect class="cls-1" x="89.49219" y="65.13672" width="11.32813" height="11.32813"/><rect class="cls-1" x="112.14844" y="65.13672" width="11.32813" height="11.32813"/><rect class="cls-1" x="21.52344" y="87.79297" width="11.32813" height="11.32813"/><rect class="cls-1" x="44.17969" y="87.79297" width="11.32813" height="11.32813"/><rect class="cls-1" x="66.83594" y="87.79297" width="11.32813" height="11.32813"/><rect class="cls-1" x="89.49219" y="87.79297" width="11.32813" height="11.32813"/><rect class="cls-1" x="21.52344" y="110.44922" width="11.32813" height="11.32813"/><rect class="cls-1" x="44.17969" y="110.44922" width="11.32813" height="11.32813"/><rect class="cls-1" x="66.83594" y="110.44922" width="11.32813" height="11.32813"/><rect class="cls-1" x="89.49219" y="110.44922" width="11.32813" height="11.32813"/><rect class="cls-1" x="112.14844" y="87.79297" width="11.32813" height="11.32813"/></g></g></svg>