<svg xmlns="http://www.w3.org/2000/svg" viewBox="0 0 72.28499 61.82097"><defs><style>.cls-1{fill:#eceb7c;}.cls-2{fill:#a5dcea;}.cls-3{fill:#b14f26;}.cls-4{fill:#883c1d;}.cls-5{fill:#fcb560;}.cls-6{fill:#a0678a;}.cls-7{fill:#fed299;}.cls-8{fill:#dd6026;}.cls-9{fill:#67b4c6;}.cls-10{fill:#45444a;}.cls-11{fill:#2d2d32;}.cls-12{fill:#d2ce2f;}.cls-13{fill:#6b442d;}.cls-14{fill:#4c2f21;}</style></defs><g id="Layer_2" data-name="Layer 2"><g id="Layer_1-2" data-name="Layer 1"><rect id="Rectangle_1003" data-name="Rectangle 1003" class="cls-1" x="21.179" y="26.785" width="8.144" height="6.719"/><rect id="Rectangle_1004" data-name="Rectangle 1004" class="cls-2" x="34.413" y="26.785" width="16.899" height="6.719"/><path id="Path_547" data-name="Path 547" class="cls-3" d="M35.635,6.847c3.233,0,10.791,1.527,10.791,11.148V36.354H24.84V17.995C24.84,8.374,32.402,6.847,35.635,6.847Z"/><path id="Path_548" data-name="Path 548" class="cls-4" d="M24.84,17.99605V36.354H35.631V6.847C32.403,6.847,24.84,8.374,24.84,17.99605Z"/><rect id="Rectangle_1005" data-name="Rectangle 1005" class="cls-5" x="32.174" y="30.04202" width="6.719" height="8.551"/><path id="Path_549" data-name="Path 549" class="cls-6" d="M53.14,33.503v6.719H45.81V61.803H25.45V40.222H17.917V33.503Z"/><path id="Path_551" data-name="Path 551" class="cls-7" d="M26.874,18.908a8.684,8.684,0,0,1,17.357,0,1.927,1.927,0,0,1,1.558,2.1l-.168,1.549a1.928,1.928,0,0,1-2.118,1.7l-.182-.019c-2.152,5.6-5.626,7.045-7.768,7.372-2.143-.328-5.616-1.769-7.769-7.372l-.181.019a1.928,1.928,0,0,1-2.118-1.7l-.168-1.549A1.927,1.927,0,0,1,26.874,18.908Z"/><path id="Path_553" data-name="Path 553" class="cls-8" d="M44.226,18.997a13.10018,13.10018,0,0,1-8.678-4.018h0a13.10018,13.10018,0,0,1-8.678,4.018c0-4.051,0-9.858,8.678-9.858S44.226,14.942,44.226,18.997Z"/><path id="Path_554" data-name="Path 554" class="cls-3" d="M26.957,18.91a12.21747,12.21747,0,0,0,2.982-.53,12.5341,12.5341,0,0,0,5.7-3.487V9.052C26.956,9.049,26.957,14.856,26.957,18.91Z"/><rect id="Rectangle_1007" data-name="Rectangle 1007" class="cls-4" x="55.38399" y="23.12002" width="7.33" height="9.162"/><path id="Path_555" data-name="Path 555" class="cls-8" d="M49.668,11.139a9.346,9.346,0,0,1,18.679,0,2.075,2.075,0,0,1,1.676,2.255l-.18,1.668a2.077,2.077,0,0,1-2.281,1.834l-.195-.021c-2.316,6.029-6.054,7.581-8.36,7.934-2.306-.353-6.044-1.906-8.36-7.934l-.195.021a2.076,2.076,0,0,1-2.281-1.834l-.18-1.668A2.075,2.075,0,0,1,49.668,11.139Z"/><path id="Path_557" data-name="Path 557" class="cls-2" d="M48.871,61.80406H72.285v-28.825a6.215,6.215,0,0,0-4.837-6.047l-.083-.018-.085-.017a.22884.22884,0,0,0-.032-.007l-.067-.013h-.015a.36985.36985,0,0,1-.058-.009l-.115-.018h-.051l-.068-.01h-.035l-.034-.005c-.058-.005-.116-.012-.173-.017h-.01l-.056-.005h-.014l-.1-.005c-.055,0-.113-.006-.17-.007H48.871V61.80406Z"/><g id="Group_193" data-name="Group 193"><rect id="Rectangle_1010" data-name="Rectangle 1010" class="cls-9" x="66.17399" y="39.612" width="2.85" height="22.192"/></g><path id="Path_558" data-name="Path 558" class="cls-10" d="M68.16336,8.503S64.988,11.937,49.204,11.14205c0,0-1.409-9.3,8.883-11.038C63.896-.882,68.16336,8.503,68.16336,8.503Z"/><path id="Path_559" data-name="Path 559" class="cls-11" d="M49.247,11.139a36.643,36.643,0,0,0,9.8-.674V0a7.43021,7.43021,0,0,0-.919.1C47.837,1.842,49.247,11.139,49.247,11.139Z"/><rect id="Rectangle_1011" data-name="Rectangle 1011" class="cls-5" x="9.371" y="23.32302" width="6.922" height="8.551"/><path id="Path_560" data-name="Path 560" class="cls-1" d="M4.599,26.661l.03-.006.06-.014.1-.019.065-.012h.014c.055-.01.109-.017.164-.025h.065s.012.208.018.207h.027l.064-.009h.067c.054-.007.108-.013.163-.017h.075a.25228.25228,0,0,1,.091.039h0a.312.312,0,0,1,.111-.049h.019a.86933.86933,0,0,0,.031-.154h.024a2.349,2.349,0,0,0,.136.2H22.4V61.821H0v-29.4A5.9,5.9,0,0,1,4.599,26.661Z"/><rect id="Rectangle_1013" data-name="Rectangle 1013" class="cls-12" x="3.874" y="39.20401" width="3.054" height="22.599"/><path id="Path_562" data-name="Path 562" class="cls-7" d="M3.919,11.931a8.825,8.825,0,0,1,17.637,0,1.959,1.959,0,0,1,1.583,2.129l-.17,1.575a1.961,1.961,0,0,1-2.153,1.733l-.184-.02c-2.187,5.693-5.717,7.159-7.894,7.492-2.178-.333-5.707-1.8-7.894-7.492l-.184.02a1.96,1.96,0,0,1-2.153-1.733l-.17-1.575A1.96,1.96,0,0,1,3.919,11.931Z"/><path id="Path_565" data-name="Path 565" class="cls-13" d="M21.956,12.32a13.91194,13.91194,0,0,1-9.214-4.267h0A13.91191,13.91191,0,0,1,3.528,12.32c0-4.3,0-10.468,9.214-10.468S21.956,8.018,21.956,12.32Z"/><path id="Path_566" data-name="Path 566" class="cls-14" d="M3.617,12.312a12.96148,12.96148,0,0,0,3.167-.563,13.3,13.3,0,0,0,6.048-3.7v-6.2C3.616,1.844,3.617,8.011,3.617,12.312Z"/></g></g></svg>