<svg width="18" height="18" viewBox="0 0 18 18" fill="none" xmlns="http://www.w3.org/2000/svg">
<g clip-path="url(#clip0_103_22)">
<path d="M9 0C7.21997 0 5.47991 0.527841 3.99987 1.51677C2.51983 2.50571 1.36628 3.91131 0.685088 5.55585C0.00389969 7.20038 -0.174331 9.00998 0.172936 10.7558C0.520203 12.5016 1.37737 14.1053 2.63604 15.364C3.89472 16.6226 5.49836 17.4798 7.24419 17.8271C8.99002 18.1743 10.7996 17.9961 12.4442 17.3149C14.0887 16.6337 15.4943 15.4802 16.4832 14.0001C17.4722 12.5201 18 10.78 18 9C18 6.61305 17.0518 4.32387 15.364 2.63604C13.6761 0.948211 11.387 0 9 0V0ZM13.608 6.512L7.825 12.325C7.693 12.4627 7.51515 12.5474 7.325 12.563C7.13088 12.5487 6.9497 12.4602 6.819 12.316L4.387 9.891C4.37046 9.87497 4.35731 9.85577 4.34833 9.83456C4.33935 9.81334 4.33472 9.79054 4.33472 9.7675C4.33472 9.74446 4.33935 9.72166 4.34833 9.70044C4.35731 9.67923 4.37046 9.66003 4.387 9.644L5.157 8.874C5.1726 8.8576 5.19137 8.84454 5.21217 8.83562C5.23297 8.8267 5.25537 8.8221 5.278 8.8221C5.30064 8.8221 5.32303 8.8267 5.34383 8.83562C5.36463 8.84454 5.38341 8.8576 5.399 8.874L7.325 10.796L12.604 5.478C12.6197 5.46158 12.6384 5.44844 12.6592 5.43934C12.68 5.43025 12.7023 5.42537 12.725 5.425V5.425C12.7477 5.42439 12.7703 5.42872 12.7912 5.4377C12.8121 5.44668 12.8308 5.46009 12.846 5.477L13.603 6.26C13.6208 6.27567 13.6351 6.29486 13.6451 6.31637C13.6551 6.33787 13.6604 6.36121 13.6609 6.3849C13.6614 6.4086 13.6569 6.43213 13.6478 6.45401C13.6387 6.47589 13.6251 6.49564 13.608 6.512V6.512Z" fill="#88BA42"/>
</g>
<defs>
<clipPath id="clip0_103_22">
<rect width="18" height="18" fill="white"/>
</clipPath>
</defs>
</svg>
