<svg xmlns="http://www.w3.org/2000/svg" viewBox="0 0 93.69819 95.75782"><defs><style>.cls-1{fill:#36495e;}.cls-2{fill:#afdfe5;}.cls-3{fill:#2c3e50;}.cls-4{fill:#fffced;}.cls-5{fill:#3d324c;}.cls-6{fill:#f05565;}.cls-7{fill:#5255a5;}.cls-8{fill:#dfb994;}.cls-9{fill:#333;}.cls-10{fill:#c9e1a5;}.cls-11{fill:#efc41b;}.cls-12{fill:#955ba5;}.cls-13{fill:#fdd7ad;}</style></defs><g id="Layer_2" data-name="Layer 2"><g id="Layer_1-2" data-name="Layer 1"><path id="Shape" class="cls-1" d="M72.5,26.362V4.943A4.944,4.944,0,0,0,67.557,0H4.943A4.944,4.944,0,0,0,0,4.943H0V90.619a4.943,4.943,0,0,0,4.943,4.943H67.552Z"/><path id="Shape-2" class="cls-2" d="M65.904,11.534V26.362L56.018,79.086H8.238A1.647,1.647,0,0,1,6.59,77.44V11.538A1.648,1.648,0,0,1,8.238,9.89H64.261A1.649,1.649,0,0,1,65.904,11.534Z"/><path id="Shape-5" class="cls-3" d="M37.895,6.592h-3.3a1.65,1.65,0,1,1-.00894-3.3H37.895a1.65,1.65,0,1,1,.00894,3.3Z"/><circle id="Oval" class="cls-3" cx="36.73898" cy="87.21799" r="3.155"/><path id="Shape-6" class="cls-4" d="M13.181,23.067a1.648,1.648,0,0,1-1.17-2.817l4.943-4.944a1.655,1.655,0,0,1,2.34,2.34L14.351,22.592A1.64394,1.64394,0,0,1,13.181,23.067Z"/><path id="Shape-7" class="cls-4" d="M13.181,31.305a1.648,1.648,0,0,1-1.17-2.813L25.192,15.31a1.654,1.654,0,0,1,2.36,2.318l-.022.022L14.351,30.83a1.64394,1.64394,0,0,1-1.17.478Z"/><circle id="Oval-2" class="cls-5" cx="35.94899" cy="39.10398" r="13.408"/><rect id="Rectangle-path-2" class="cls-6" x="25.69598" y="60.401" width="20.507" height="7.887" rx="1"/><path id="Shape-8" class="cls-7" d="M45.82,48.605a13.181,13.181,0,0,1-18.6337.51233L27.186,49.117c-.175-.166-.346-.336-.511-.512a9.984,9.984,0,0,1,6.426-6.9,4.941,4.941,0,0,0,6.294,0A9.989,9.989,0,0,1,45.82,48.605Z"/><path id="Shape-9" class="cls-8" d="M41.191,37.892a4.943,4.943,0,1,1-4.943-4.943h0A4.944,4.944,0,0,1,41.191,37.892Z"/><rect class="cls-9" x="51.90159" y="22.75782" width="41.79659" height="73" rx="4.51216"/><path id="Rectangle-path" class="cls-10" d="M57.492,23.696H88.10779a3.94879,3.94879,0,0,1,3.89551,4V89.105a3.94879,3.94879,0,0,1-3.89551,4H57.492a3.94879,3.94879,0,0,1-3.89551-4V27.696A3.94879,3.94879,0,0,1,57.492,23.696Z"/><ellipse id="Oval-3" class="cls-5" cx="73.08725" cy="50.51398" rx="13.408" ry="12.62"/><rect id="Rectangle-path-3" class="cls-11" x="62.133" y="72.59802" width="20.507" height="6.31" rx="1"/><path id="Shape-10" class="cls-12" d="M82.65974,58.786a13.182,13.182,0,0,1-18.634.512c-.175-.166-.346-.336-.511-.512a9.98393,9.98393,0,0,1,6.426-6.9,4.941,4.941,0,0,0,6.294,0A9.989,9.989,0,0,1,82.65974,58.786Z"/><path id="Shape-11" class="cls-13" d="M77.733,49.076a4.943,4.943,0,1,1-4.943-4.943h0A4.944,4.944,0,0,1,77.733,49.076Z"/><g id="Group_53" data-name="Group 53"><path id="Shape-12" class="cls-9" d="M53.019,88.971v-6.59a6.589,6.589,0,0,0,6.588,6.59H85.971a6.59,6.59,0,0,0,6.591-6.589l-.001-.001v6.59a6.59,6.59,0,0,1-6.59,6.59H59.609a6.589,6.589,0,0,1-6.59-6.588"/><path id="Shape-13" class="cls-9" d="M84.324,23.362,80.37,28.634a3.3,3.3,0,0,1-2.636,1.318H67.847a3.29383,3.29383,0,0,1-2.636-1.318l-3.95-5.272Z"/></g></g></g></svg>