<?xml version="1.0" encoding="UTF-8"?>
<svg xmlns="http://www.w3.org/2000/svg" version="1.1" viewBox="163.33 70 373.34 396.67">
    <path fill='#cc0000' d="m466.67 93.332h-23.336v-11.664c0-6.4453-5.2227-11.668-11.664-11.668-6.4453 0-11.668 5.2227-11.668 11.668v11.664h-140v-11.664c0-6.4453-5.2227-11.668-11.668-11.668-6.4414 0-11.664 5.2227-11.664 11.668v11.664h-23.336c-18.562 0-36.367 7.375-49.496 20.504-13.129 13.129-20.504 30.934-20.504 49.496v233.34c0 18.562 7.375 36.367 20.504 49.496 13.129 13.129 30.934 20.504 49.496 20.504h233.34c18.562 0 36.367-7.375 49.496-20.504 13.129-13.129 20.504-30.934 20.504-49.496v-233.34c0-18.562-7.375-36.367-20.504-49.496-13.129-13.129-30.934-20.504-49.496-20.504zm46.668 303.33-0.003907 0.003907c-0.011719 12.371-4.9336 24.234-13.684 32.98-8.7461 8.75-20.609 13.672-32.98 13.684h-233.34c-12.371-0.011719-24.234-4.9336-32.98-13.684-8.75-8.7461-13.672-20.609-13.684-32.98v-186.67h326.66zm-151.66-11.668-0.003906 0.003906c0 4.7188-2.8398 8.9727-7.1992 10.777-4.3594 1.8086-9.3789 0.80859-12.715-2.5273-3.3359-3.3359-4.3359-8.3555-2.5312-12.715 1.8086-4.3594 6.0625-7.2031 10.781-7.2031 3.0938 0 6.0625 1.2305 8.25 3.418s3.4141 5.1562 3.4141 8.25zm0-116.67v70l-0.003906 0.003906c0 6.4453-5.2227 11.668-11.664 11.668-6.4453 0-11.668-5.2227-11.668-11.668v-70c0-6.4453 5.2227-11.668 11.668-11.668 6.4414 0 11.664 5.2227 11.664 11.668z"></path>
</svg>