<svg width="61" height="61" viewBox="0 0 61 61" fill="none" xmlns="http://www.w3.org/2000/svg">
<path d="M27.009 39.013H33.009V45.013H27.009V39.013ZM27.009 15.005H33.009V33.011H27.009V15.005ZM29.98 2.66713e-05C24.0459 0.00595883 18.2467 1.77106 13.3155 5.0722C8.38436 8.37335 4.54257 13.0623 2.27579 18.5465C0.00900102 24.0306 -0.581019 30.0637 0.58031 35.8831C1.74164 41.7024 4.60218 47.0469 8.80034 51.2409C12.9985 55.4349 18.3458 58.2901 24.1664 59.4456C29.9869 60.6011 36.0194 60.005 41.5013 57.7328C46.9831 55.4605 51.6683 51.614 54.9645 46.6796C58.2607 41.7451 60.02 35.9442 60.02 30.01C60.0213 26.0662 59.245 22.1607 57.7355 18.5172C56.2259 14.8737 54.0127 11.5635 51.2226 8.7762C48.4325 5.98886 45.1202 3.77902 41.4751 2.2731C37.8301 0.767192 33.9239 -0.00523204 29.98 2.66713e-05V2.66713e-05ZM30.01 54.018C25.2617 54.018 20.62 52.61 16.6719 49.972C12.7238 47.3339 9.64662 43.5844 7.82951 39.1975C6.0124 34.8106 5.53697 29.9834 6.46332 25.3263C7.38967 20.6692 9.67622 16.3914 13.0338 13.0338C16.3914 9.67623 20.6692 7.38969 25.3263 6.46333C29.9834 5.53698 34.8106 6.01242 39.1975 7.82953C43.5844 9.64664 47.3339 12.7238 49.9719 16.6719C52.61 20.62 54.018 25.2617 54.018 30.01C54.0191 33.1631 53.3988 36.2855 52.1927 39.1987C50.9865 42.112 49.2181 44.759 46.9886 46.9886C44.759 49.2181 42.112 50.9865 39.1987 52.1927C36.2855 53.3988 33.1631 54.0191 30.01 54.018V54.018Z" fill="#CC0000"/>
</svg>
