<svg fill="#fff" width="24px" height="24px" xmlns="http://www.w3.org/2000/svg">
 <path d="m17.217 2c-2.0587 0-3.8664 0.8928-5.2277 2.5824-1.3608-1.6896-3.1613-2.5824-5.2066-2.5824-3.7402 0-6.7829 3.0562-6.7829 6.8126 0 0.99552 0.14976 1.92 0.40464 2.7874h3.6187l0.82752-1.6546c0.08544-0.1704 0.26736-0.27168 0.45456-0.26496 0.19008 0.01008 0.35712 0.132 0.42432 0.31056l0.85584 2.2824 1.3445-6.5299c0.0456-0.22368 0.2424-0.38352 0.46992-0.38352h0.00576c0.22992 0.00288 0.42576 0.168 0.46656 0.39408l1.6142 8.8766 1.7856-4.6435c0.07104-0.1848 0.24912-0.3072 0.44784-0.3072h0.0019c0.19968 9.6e-4 0.37728 0.1248 0.44784 0.31104l1.0987 2.9299 0.68496-1.0958c0.08738-0.13968 0.24098-0.22512 0.40658-0.22512h2.533c0.16608-0.2856 0.47232-0.48 0.82704-0.48 0.5304 0 0.96 0.4296 0.96 0.96s-0.4296 0.96-0.96 0.96c-0.35424 0-0.66048-0.1944-0.82704-0.48h-2.267l-1.0594 1.6944c-0.09648 0.15456-0.27552 0.2376-0.45456 0.2232-0.18192-0.01824-0.33744-0.13824-0.40176-0.30912l-0.996-2.6568-1.9464 5.0606c-0.07152 0.18672-0.25056 0.30768-0.44784 0.30768-0.0144 0-0.02976-4.8e-4 -0.04512-0.0019-0.21408-0.02018-0.3888-0.1805-0.4272-0.39218l-1.477-8.1235-1.1808 5.7341c-0.0432 0.20976-0.21984 0.36528-0.43248 0.38208-0.2208 0.0168-0.41184-0.10992-0.4872-0.31008l-1.0531-2.8099-0.468 0.93552c-0.08112 0.1632-0.2472 0.26592-0.42912 0.26592h-3.5837c1.5883 3.8904 5.4427 6.4862 8.4427 8.5037 0.97152 0.6528 2.4974 1.931 2.5128 1.944 0.08256 0.0696 0.18864 0.10224 0.29616 0.10224 0.12432 0 0.25056-0.04368 0.34704-0.12384 0.63984-0.53568 1.5163-1.2701 2.4859-1.9219 3.8736-2.6054 9.179-6.1728 9.179-12.252 0-3.7565-3.0427-6.8126-6.7829-6.8126z"/>
</svg>
