<svg xmlns="http://www.w3.org/2000/svg" viewBox="0 0 121.16385 102.84262"><defs><style>.cls-1{fill:#f9b7ab;}.cls-2{fill:#fbcbc3;}.cls-3{fill:#434c35;}.cls-4{fill:#d81f2a;}.cls-5{fill:#f1f2f2;}</style></defs><g id="Layer_2" data-name="Layer 2"><g id="Layer_1-2" data-name="Layer 1"><g id="Group_163" data-name="Group 163"><g id="Mask_Group_15" data-name="Mask Group 15"><g id="healthcare-covid19-coronavirus-hand-hearth"><path id="Path_401" data-name="Path 401" class="cls-1" d="M31.22974,48.16762l-15.216-23.219a5.768,5.768,0,0,0-6.565-4.127,5.545,5.545,0,0,0-3.568,2.432,5.19,5.19,0,0,0-.637,4.17l15.456,25.6Z"/><path id="Path_402" data-name="Path 402" class="cls-1" d="M91.30972,48.16762l16.588-23.219a5.768,5.768,0,0,1,6.565-4.127,5.549,5.549,0,0,1,3.569,2.432,5.19,5.19,0,0,1,.637,4.17l-16.83,25.6Z"/><path id="Path_403" data-name="Path 403" class="cls-2" d="M48.44574,57.79361l-16.3-9.22a5.661,5.661,0,0,0-7.007,1.2l-14.184-17.716a5.768,5.768,0,0,0-6.565-4.127,5.544,5.544,0,0,0-3.569,2.431,5.191,5.191,0,0,0-.637,4.17l16.258,28.876a6.994,6.994,0,0,0,2.232,3.486l12.466,10.7a7.013,7.013,0,0,1,2.47,5.32v5.688h22.128v-18.524a14.14492,14.14492,0,0,0-7.292-12.279Z"/><path id="Path_404" data-name="Path 404" class="cls-2" d="M116.77972,27.94063a5.768,5.768,0,0,0-6.563,4.126l-12.82,17.72a5.661,5.661,0,0,0-7.007-1.2l-16.3,9.216a14.144,14.144,0,0,0-7.285,12.279v18.532h22.125v-5.693a7.007,7.007,0,0,1,2.47-5.32l12.466-10.7a7.0001,7.0001,0,0,0,2.232-3.487l14.882-28.878a5.19,5.19,0,0,0-.636-4.17A5.546,5.546,0,0,0,116.77972,27.94063Z"/><path id="Path_405" data-name="Path 405" class="cls-3" d="M64.95773,88.60962v14.233h25.816v-14.233Z"/><path id="Path_406" data-name="Path 406" class="cls-3" d="M57.57974,88.60962h-25.816v14.233h25.816Z"/><path id="Path_407" data-name="Path 407" class="cls-4" d="M86.05374,27.33463l-1.309,1.264-23.471,22.648-23.47-22.653-1.31-1.264a15.608,15.608,0,0,1-.57434-22.06556q.19981-.21051.40733-.41344c.055-.055.111-.109.167-.163a17.027,17.027,0,0,1,23.471.009l1.306,1.265,1.31-1.264a17.022,17.022,0,0,1,23.47-.012A15.615,15.615,0,0,1,86.62906,26.761q-.19885.20957-.40534.41163l-.163.159Z"/><path id="Path_409" data-name="Path 409" class="cls-5" d="M65.98524,38.43214V29.3319H75.418V20.23036H65.98524V11.13012h-9.434v9.10024H47.11847v9.10025h9.43276v9.10025Z"/><g id="Group_121" data-name="Group 121"><path id="Path_410" data-name="Path 410" class="cls-1" d="M95.92673,54.27164l-12.326,6.582a1.514,1.514,0,0,0-.628,2.025,1.58107,1.58107,0,0,0,.969.787,1.649,1.649,0,0,0,1.257-.142l10.729-5.693a5.252,5.252,0,0,0,2.432-6.42,5.33,5.33,0,0,1-2.432,2.864Z"/><path id="Path_411" data-name="Path 411" class="cls-1" d="M26.61273,54.27164l12.326,6.582a1.514,1.514,0,0,1,.628,2.025,1.58107,1.58107,0,0,1-.969.787,1.64906,1.64906,0,0,1-1.257-.142l-10.728-5.7a5.251,5.251,0,0,1-2.432-6.419,5.328,5.328,0,0,0,2.432,2.863Z"/></g></g></g></g></g></g></svg>