<svg xmlns="http://www.w3.org/2000/svg" viewBox="0 0 60.09997 68.9753"><defs><style>.cls-1{fill:#1c1b44;}.cls-1,.cls-2,.cls-6,.cls-7{stroke:#000;stroke-width:2px;}.cls-1,.cls-2{stroke-miterlimit:10;}.cls-2{fill:#a7dde9;}.cls-3{fill:#ef3955;}.cls-4{fill:#cb3027;}.cls-5{fill:#010101;}.cls-6{fill:#adacb2;}.cls-6,.cls-7{stroke-linejoin:round;}.cls-7{fill:none;}.cls-8{fill:#81372e;}.cls-9{fill:#ffd7a3;}.cls-10{fill:#c47bb4;}.cls-11{fill:#fdc98e;}.cls-12{fill:#ffe1b2;}.cls-13{fill:#e5eaef;}.cls-14{fill:#d0d7dc;}.cls-15{fill:#556;}.cls-16{fill:#b3b9c0;}</style></defs><g id="Layer_2" data-name="Layer 2"><g id="Layer_1-2" data-name="Layer 1"><rect class="cls-1" x="1" y="8.68875" width="45" height="59" rx="3.4964"/><rect class="cls-2" x="4.4322" y="13.18875" width="38.13559" height="50" rx="2.96305"/><path class="cls-3" d="M30.1,22.15237v4.4H25.7v4.4H21.3v-4.4H16.9v-4.4h4.4v-4.4h4.4v4.4Z"/><path class="cls-4" d="M30.1,22.15237v4.4H25.7v4.4H23.5v-13.2h2.2v4.4Z"/><path class="cls-5" d="M30.1,21.05237H26.8v-3.3a1.1,1.1,0,0,0-1.1-1.1H21.3a1.1,1.1,0,0,0-1.1,1.1v3.3H16.9a1.1,1.1,0,0,0-1.1,1.1v4.4a1.1,1.1,0,0,0,1.1,1.1h3.3v3.3a1.1,1.1,0,0,0,1.1,1.1h4.4a1.1,1.1,0,0,0,1.1-1.1v-3.3h3.3a1.1,1.1,0,0,0,1.1-1.1v-4.4A1.1,1.1,0,0,0,30.1,21.05237Zm-1.1,4.4H25.7a1.1,1.1,0,0,0-1.1,1.1v3.3H22.4v-3.3a1.1,1.1,0,0,0-1.1-1.1H18v-2.2h3.3a1.1,1.1,0,0,0,1.1-1.1v-3.3h2.2v3.3a1.1,1.1,0,0,0,1.1,1.1H29Z"/><path class="cls-6" d="M34.38019,7.60658v5.5H12.38025v-5.5a2.20661,2.20661,0,0,1,2.2-2.2h3.41a5.5,5.5,0,0,1,10.78,0h3.41A2.2066,2.2066,0,0,1,34.38019,7.60658Z"/><path class="cls-5" d="M23.41,4.27425a3.3,3.3,0,1,0,3.3,3.3A3.3,3.3,0,0,0,23.41,4.27425Zm0,4.4a1.1,1.1,0,1,1,1.1-1.1A1.1,1.1,0,0,1,23.41,8.67424Z"/><line class="cls-7" x1="9.09997" y1="37.18875" x2="38.09997" y2="37.18875"/><line class="cls-7" x1="9.09997" y1="41.18875" x2="38.09997" y2="41.18875"/><line class="cls-7" x1="9.09997" y1="45.18875" x2="38.09997" y2="45.18875"/><line class="cls-7" x1="9.09997" y1="49.18875" x2="38.09997" y2="49.18875"/><path class="cls-8" d="M49.31988,29.59134,44.87531,53.71913,54.1,57.18875C57.85989,52.13266,55.23745,29.48081,49.31988,29.59134Z"/><path class="cls-8" d="M49.31989,29.59131c-1.11119-.67467-5.76657-1.79062-10.21992.59744-5,3-9,16-6,28,.011.01514,7.96567-5.10453,7.96567-5.10453Z"/><path class="cls-9" d="M48.06223,50.73846h-.02366V49.29109h-8.8772v1.48153c0,1.45142-.006,3.029-1.25438,3.98335V68.9753H49.293V54.70605C48.06607,53.74741,48.06223,52.18033,48.06223,50.73846Z"/><path class="cls-10" d="M43.64135,62.62589a14.53335,14.53335,0,0,1-3.80454-.49539v6.8448H48.714V61.71154A13.81052,13.81052,0,0,1,43.64135,62.62589Z"/><path class="cls-11" d="M48.64872,57.4858a3.60107,3.60107,0,0,0,.64423.11328V54.67424c-1.24949-.95671-1.2535-2.52074-1.2535-3.95971l-.00088-.03686V49.1946l-7.121.03686-1.93278.63491C40.27337,51.29512,44.21951,56.2953,48.64872,57.4858Z"/><path class="cls-12" d="M52.49455,41.02021c0,5.08471-5.05692,11.429-8.88916,11.429s-8.88916-6.34429-8.88916-11.429,3.97988-6.98442,8.88916-6.98442S52.49455,35.93551,52.49455,41.02021Z"/><path class="cls-8" d="M44.87521,30.86113a13.02772,13.02772,0,0,0-2.46168.75206l-.07806-.11714s-.13065.10266-.35683.28059c-.52655.19993-.913.35432-.913.35432l.1485.24761C38.17071,33.44315,33.93276,37.823,34.1,39.18875c-.63492.63489,2.521,16.76088,2.521,7.546,0-7.69865,4.27716-9.2233,8.25424-10.15908A2.98776,2.98776,0,0,0,47.415,34.03589C47.62666,32.97767,45.51022,30.86113,44.87521,30.86113Z"/><path class="cls-8" d="M46.78005,34.6708c1.16407,4.18,3.49221,6.07161,5.67484,6.62721,1.196.30443.67467-3.45245.67467-3.45245s-1.69323-4.33883-1.90484-4.44458a42.58907,42.58907,0,0,1-1.90483-3.80967l-3.80967,3.17476Z"/><path class="cls-13" d="M38.57565,54.01637c-.59387.96486-1.80464,1.64314-4.28939,1.64314h-.20187A6.98442,6.98442,0,0,0,27.1,62.64393v4.42654A1.90483,1.90483,0,0,0,29.0048,68.9753H42.01361Z"/><path class="cls-13" d="M48.62428,54.01637c.59387.96486,1.80464,1.64314,4.2894,1.64314h.20187A6.98442,6.98442,0,0,1,60.1,62.64393v4.42654a1.90483,1.90483,0,0,1-1.90483,1.90483H45.18633Z"/><circle class="cls-14" cx="34.08122" cy="65.78305" r="1.90483"/><path class="cls-14" d="M55.5154,67.95757l-.785-.53948a7.57277,7.57277,0,0,0,1.09768-4.17488c0-2.83945-1.23576-5.23832-2.69847-5.23832s-2.69847,2.39887-2.69847,5.23832a7.57193,7.57193,0,0,0,1.09768,4.17488l-.785.53948a8.53341,8.53341,0,0,1-1.26509-4.71436c0-3.47147,1.60358-6.19069,3.65094-6.19069,2.04725,0,3.65094,2.71932,3.65094,6.19069A8.53577,8.53577,0,0,1,55.5154,67.95757Z"/><circle class="cls-15" cx="51.22472" cy="67.68788" r="0.63491"/><circle class="cls-15" cx="55.03439" cy="67.68788" r="0.63491"/><path class="cls-14" d="M34.08122,64.98941a.47613.47613,0,0,1-.47618-.47619c0-8.22819,3.889-10.48338,4.05456-10.57534a.47622.47622,0,0,1,.46489.83127c-.0467.027-3.56708,2.1394-3.56708,9.74407A.47613.47613,0,0,1,34.08122,64.98941Z"/><circle class="cls-16" cx="34.08122" cy="65.78305" r="1.00534"/><path class="cls-14" d="M53.12956,58.00518a.47654.47654,0,0,1-.44907-.31794,3.64337,3.64337,0,0,0-1.09393-1.67306.47626.47626,0,0,1,.54624-.78033,4.50689,4.50689,0,0,1,1.44582,2.13661.4764.4764,0,0,1-.44906.63472Z"/><path class="cls-12" d="M51.54893,41.0783c1.03892-.23814,1.71957.27066,1.71957,1.26992,0,1.3228-1.39709,4.56365-2.86588,2.53975S51.54893,41.0783,51.54893,41.0783Z"/></g></g></svg>