<svg width="19" height="16" viewBox="0 0 19 16" fill="none" xmlns="http://www.w3.org/2000/svg">
<path d="M18.001 7.36002V10.174L16.701 10.709L16.43 15.984H12.51L12.398 13.8C12.9965 13.4268 13.5034 12.9237 13.881 12.328C14.4776 11.3965 14.8104 10.3207 14.844 9.21502V8.49402C15.1432 8.40478 15.4004 8.21082 15.5683 7.94761C15.7363 7.68439 15.804 7.3695 15.7589 7.06051C15.7138 6.75153 15.559 6.4691 15.3228 6.26486C15.0866 6.06062 14.7848 5.94823 14.4725 5.94823C14.1602 5.94823 13.8584 6.06062 13.6222 6.26486C13.386 6.4691 13.2312 6.75153 13.1861 7.06051C13.141 7.3695 13.2087 7.68439 13.3767 7.94761C13.5447 8.21082 13.8018 8.40478 14.101 8.49402V9.21502C14.0846 9.92122 13.9211 10.6162 13.6209 11.2557C13.3208 11.8952 12.8907 12.4651 12.358 12.929L12.243 10.71L10.943 10.175V7.36002C10.9292 6.88759 11.0104 6.41721 11.1817 5.97671C11.353 5.53621 11.6109 5.13456 11.9402 4.79553C12.2695 4.4565 12.6634 4.18699 13.0987 4.00295C13.5341 3.8189 14.0019 3.72408 14.4745 3.72408C14.9471 3.72408 15.415 3.8189 15.8503 4.00295C16.2856 4.18699 16.6796 4.4565 17.0088 4.79553C17.3381 5.13456 17.5961 5.53621 17.7673 5.97671C17.9386 6.41721 18.0198 6.88759 18.006 7.36002H18.001ZM14.469 1.64544e-05C14.1382 0.000411915 13.8149 0.0988677 13.5401 0.28294C13.2652 0.467011 13.0511 0.728436 12.9248 1.03417C12.7985 1.33991 12.7656 1.67623 12.8304 2.00063C12.8952 2.32503 13.0547 2.62294 13.2887 2.85671C13.5228 3.09048 13.8209 3.24962 14.1454 3.31402C14.4698 3.37841 14.8061 3.34516 15.1117 3.21847C15.4173 3.09179 15.6784 2.87736 15.8622 2.60228C16.0459 2.3272 16.144 2.00382 16.144 1.67302C16.144 1.45315 16.1007 1.23543 16.0165 1.03232C15.9323 0.829217 15.8089 0.644698 15.6533 0.489319C15.4977 0.333941 15.3131 0.21075 15.1098 0.126792C14.9066 0.0428331 14.6889 -0.000246391 14.469 1.64544e-05Z" fill="#6BA539"/>
<path d="M5.62601 8.56601C5.62601 10.389 5.62601 13.399 9.66901 13.399C13.018 13.399 13.619 10.075 13.619 9.23401" stroke="#6BA539" stroke-width="2" stroke-linecap="round" stroke-linejoin="round"/>
<path d="M15.027 7.24901C15.027 7.35937 14.9943 7.46725 14.933 7.55902C14.8716 7.65078 14.7845 7.7223 14.6825 7.76453C14.5806 7.80677 14.4684 7.81782 14.3601 7.79629C14.2519 7.77476 14.1525 7.72161 14.0744 7.64357C13.9964 7.56554 13.9433 7.46611 13.9217 7.35787C13.9002 7.24963 13.9112 7.13743 13.9535 7.03547C13.9957 6.93351 14.0672 6.84636 14.159 6.78505C14.2508 6.72374 14.3586 6.69101 14.469 6.69101C14.617 6.69101 14.7589 6.7498 14.8636 6.85444C14.9682 6.95909 15.027 7.10102 15.027 7.24901ZM3.503 0.372009C3.35605 0.372009 3.2124 0.415585 3.09021 0.497227C2.96803 0.578869 2.8728 0.69491 2.81656 0.830675C2.76032 0.966441 2.74561 1.11583 2.77428 1.25996C2.80295 1.40409 2.87371 1.53648 2.97762 1.64039C3.08153 1.7443 3.21392 1.81506 3.35805 1.84373C3.50218 1.8724 3.65157 1.85769 3.78734 1.80145C3.9231 1.74522 4.03914 1.64998 4.12078 1.5278C4.20243 1.40561 4.246 1.26196 4.246 1.11501C4.246 0.917953 4.16772 0.728968 4.02838 0.589629C3.88904 0.450289 3.70006 0.372009 3.503 0.372009ZM7.964 0.372009C7.81705 0.372009 7.6734 0.415585 7.55121 0.497227C7.42903 0.578869 7.3338 0.69491 7.27756 0.830675C7.22132 0.966441 7.20661 1.11583 7.23528 1.25996C7.26395 1.40409 7.33471 1.53648 7.43862 1.64039C7.54253 1.7443 7.67492 1.81506 7.81905 1.84373C7.96318 1.8724 8.11257 1.85769 8.24834 1.80145C8.3841 1.74522 8.50014 1.64998 8.58178 1.5278C8.66343 1.40561 8.707 1.26196 8.707 1.11501C8.707 0.917953 8.62872 0.728968 8.48938 0.589629C8.35004 0.450289 8.16106 0.372009 7.964 0.372009Z" fill="#6BA539"/>
<path d="M3.503 1.11502H1.644V4.08902C1.644 5.17349 2.07481 6.21354 2.84165 6.98038C3.60848 7.74722 4.64853 8.17802 5.73301 8.17802C6.81748 8.17802 7.85753 7.74722 8.62436 6.98038C9.3912 6.21354 9.82201 5.17349 9.82201 4.08902V1.11502H7.964" stroke="#6BA539" stroke-width="2" stroke-linecap="round" stroke-linejoin="round"/>
</svg>
