<svg width="17" height="17" viewBox="0 0 17 17" fill="none" xmlns="http://www.w3.org/2000/svg">
<path d="M9.354 2.466C9.26727 2.466 9.1841 2.50045 9.12277 2.56177C9.06145 2.6231 9.027 2.70627 9.027 2.793V4.1C9.027 4.18672 9.06145 4.2699 9.12277 4.33122C9.1841 4.39254 9.26727 4.427 9.354 4.427H11.508L8.792 7.132C8.73159 7.19517 8.69854 7.27961 8.7 7.367V8.674C8.7 8.71689 8.70846 8.75937 8.72491 8.79898C8.74135 8.8386 8.76546 8.87458 8.79583 8.90487C8.82621 8.93515 8.86227 8.95914 8.90194 8.97547C8.9416 8.99179 8.9841 9.00013 9.027 9H14.255C14.298 9.00013 14.3406 8.99176 14.3803 8.97537C14.42 8.95899 14.4561 8.93491 14.4865 8.90451C14.5169 8.87412 14.541 8.83802 14.5574 8.79829C14.5738 8.75856 14.5821 8.71598 14.582 8.673V7.367C14.5821 7.32402 14.5738 7.28144 14.5574 7.2417C14.541 7.20197 14.5169 7.16587 14.4865 7.13548C14.4561 7.10509 14.42 7.08101 14.3803 7.06462C14.3406 7.04823 14.298 7.03986 14.255 7.04H11.778L14.494 4.334C14.5512 4.26982 14.5814 4.18593 14.578 4.1V2.792C14.578 2.70527 14.5435 2.6221 14.4822 2.56077C14.4209 2.49945 14.3377 2.465 14.251 2.465L9.354 2.466Z" fill="#6BA539"/>
<path fill-rule="evenodd" clip-rule="evenodd" d="M5.217 5.586C5.21721 6.95077 5.6193 8.28526 6.37309 9.42298C7.12688 10.5607 8.199 11.4513 9.45568 11.9836C10.7124 12.5159 12.098 12.6663 13.4396 12.4162C14.7813 12.1661 16.0196 11.5264 17 10.577C16.575 12.008 15.7712 13.2976 14.6736 14.3094C13.576 15.3211 12.2253 16.0174 10.7645 16.3247C9.30364 16.6319 7.78692 16.5386 6.37473 16.0547C4.96254 15.5708 3.70738 14.7143 2.74197 13.5757C1.77657 12.4371 1.13682 11.0587 0.890379 9.58641C0.643938 8.11409 0.799969 6.60254 1.34197 5.21162C1.88397 3.82069 2.79179 2.6021 3.96943 1.6847C5.14707 0.767309 6.55074 0.185221 8.032 0C7.15817 0.645656 6.4482 1.48751 5.95925 2.45776C5.47031 3.428 5.21606 4.49952 5.217 5.586Z" fill="#6BA539"/>
</svg>
