<svg width="17" height="19" viewBox="0 0 17 19" fill="none" xmlns="http://www.w3.org/2000/svg">
<path d="M10.552 10.509C10.552 10.657 8.952 12.991 8.952 12.991L8.252 14.646C8.10758 14.9819 7.89195 15.2825 7.62 15.527L5.536 17.447C5.34957 17.6107 5.10763 17.697 4.85967 17.6883C4.6117 17.6796 4.37644 17.5764 4.202 17.4C4.02408 17.2182 3.92445 16.9739 3.92445 16.7195C3.92445 16.4651 4.02408 16.2208 4.202 16.039L6.097 13.971C6.32717 13.7145 6.50243 13.4137 6.612 13.087L7.395 10.741L10.552 10.509Z" fill="#6BA539"/>
<path d="M10.552 7.49999V10.509C10.5514 10.6559 10.5856 10.8009 10.652 10.932L13.617 16.367C13.725 16.5665 13.7524 16.7998 13.6936 17.0189C13.6348 17.238 13.4943 17.4263 13.301 17.545C13.1121 17.6639 12.8852 17.7072 12.6657 17.6663C12.4463 17.6253 12.2503 17.5031 12.117 17.324L8.947 12.992L7.394 10.737V6.94699L6.535 7.63499C6.07034 8.00633 5.75163 8.52973 5.635 9.11299L5.367 10.44C5.34443 10.5481 5.29739 10.6496 5.22947 10.7368C5.16156 10.8239 5.07459 10.8943 4.97523 10.9426C4.87588 10.9909 4.76678 11.0157 4.65632 11.0153C4.54585 11.0148 4.43696 10.9891 4.338 10.94C4.2171 10.8796 4.11875 10.782 4.05737 10.6616C3.996 10.5412 3.97484 10.4043 3.997 10.271L4.397 7.89299C4.49888 7.28042 4.82284 6.72685 5.307 6.33799L7.135 4.87599C7.50761 4.57908 7.97056 4.41853 8.447 4.42099C8.62218 4.42015 8.79722 4.43084 8.971 4.45299C9.51813 4.58904 9.9993 4.91466 10.329 5.37199L11.017 6.23099C11.3883 6.69565 11.9117 7.01436 12.495 7.13099L13.821 7.39899C13.9303 7.41939 14.0334 7.46473 14.1224 7.53148C14.2113 7.59824 14.2837 7.6846 14.3338 7.78387C14.3839 7.88313 14.4104 7.99262 14.4113 8.10382C14.4122 8.21501 14.3875 8.32492 14.339 8.42499C14.2786 8.54589 14.181 8.64424 14.0606 8.70562C13.9402 8.76699 13.8033 8.78815 13.67 8.76599L11.283 8.36599C11.04 8.32585 10.8042 8.25038 10.583 8.14199" fill="#6BA539"/>
<path d="M12.763 12.632V13.264C12.763 13.3478 12.7963 13.4282 12.8556 13.4874C12.9148 13.5467 12.9952 13.58 13.079 13.58C13.1628 13.58 13.2432 13.5467 13.3024 13.4874C13.3617 13.4282 13.395 13.3478 13.395 13.264V12.632C13.395 12.5482 13.3617 12.4678 13.3024 12.4085C13.2432 12.3493 13.1628 12.316 13.079 12.316C12.9952 12.316 12.9148 12.3493 12.8556 12.4085C12.7963 12.4678 12.763 12.5482 12.763 12.632ZM0.762999 12.316C0.721501 12.316 0.68041 12.3242 0.642071 12.34C0.603732 12.3559 0.568896 12.3792 0.539553 12.4085C0.51021 12.4379 0.486933 12.4727 0.471053 12.5111C0.455172 12.5494 0.446999 12.5905 0.446999 12.632L0.446999 13.264C0.446999 13.3478 0.480291 13.4282 0.539553 13.4874C0.598814 13.5467 0.67919 13.58 0.762999 13.58C0.846807 13.58 0.927183 13.5467 0.986444 13.4874C1.04571 13.4282 1.079 13.3478 1.079 13.264V12.632C1.079 12.5482 1.04571 12.4678 0.986444 12.4085C0.927183 12.3493 0.846807 12.316 0.762999 12.316ZM2.342 12.316C2.25819 12.316 2.17781 12.3493 2.11855 12.4085C2.05929 12.4678 2.026 12.5482 2.026 12.632V13.264C2.026 13.3478 2.05929 13.4282 2.11855 13.4874C2.17781 13.5467 2.25819 13.58 2.342 13.58C2.42581 13.58 2.50618 13.5467 2.56544 13.4874C2.62471 13.4282 2.658 13.3478 2.658 13.264V12.632C2.658 12.5482 2.62471 12.4678 2.56544 12.4085C2.50618 12.3493 2.42581 12.316 2.342 12.316ZM3.921 13.579C4.00481 13.579 4.08518 13.5457 4.14444 13.4864C4.20371 13.4272 4.237 13.3468 4.237 13.263V12.631C4.237 12.5472 4.20371 12.4668 4.14444 12.4075C4.08518 12.3483 4.00481 12.315 3.921 12.315C3.83719 12.315 3.75681 12.3483 3.69755 12.4075C3.63829 12.4668 3.605 12.5472 3.605 12.631V13.263C3.605 13.3468 3.63829 13.4272 3.69755 13.4864C3.75681 13.5457 3.83719 13.579 3.921 13.579ZM14.658 12.316C14.6165 12.316 14.5754 12.3242 14.5371 12.34C14.4987 12.3559 14.4639 12.3792 14.4346 12.4085C14.4052 12.4379 14.3819 12.4727 14.3661 12.5111C14.3502 12.5494 14.342 12.5905 14.342 12.632V13.264C14.342 13.3478 14.3753 13.4282 14.4346 13.4874C14.4938 13.5467 14.5742 13.58 14.658 13.58C14.7418 13.58 14.8222 13.5467 14.8814 13.4874C14.9407 13.4282 14.974 13.3478 14.974 13.264V12.632C14.974 12.5482 14.9407 12.4678 14.8814 12.4085C14.8222 12.3493 14.7418 12.316 14.658 12.316ZM16.237 12.316C16.1532 12.316 16.0728 12.3493 16.0136 12.4085C15.9543 12.4678 15.921 12.5482 15.921 12.632V13.264C15.921 13.3478 15.9543 13.4282 16.0136 13.4874C16.0728 13.5467 16.1532 13.58 16.237 13.58C16.3208 13.58 16.4012 13.5467 16.4604 13.4874C16.5197 13.4282 16.553 13.3478 16.553 13.264V12.632C16.553 12.5904 16.5448 12.5492 16.5288 12.5108C16.5129 12.4724 16.4895 12.4376 16.4601 12.4082C16.4306 12.3788 16.3957 12.3556 16.3572 12.3398C16.3188 12.3239 16.2776 12.3159 16.236 12.316H16.237ZM5.816 13.263V12.631C5.816 12.5472 5.78271 12.4668 5.72344 12.4075C5.66418 12.3483 5.58381 12.315 5.5 12.315C5.41619 12.315 5.33581 12.3483 5.27655 12.4075C5.21729 12.4668 5.184 12.5472 5.184 12.631V13.263C5.184 13.3468 5.21729 13.4272 5.27655 13.4864C5.33581 13.5457 5.41619 13.579 5.5 13.579C5.58381 13.579 5.66418 13.5457 5.72344 13.4864C5.78271 13.4272 5.816 13.3468 5.816 13.263ZM8.973 3.78899C9.34788 3.78919 9.7144 3.67819 10.0262 3.47005C10.338 3.2619 10.581 2.96595 10.7246 2.61964C10.8681 2.27333 10.9057 1.89223 10.8326 1.52454C10.7595 1.15686 10.579 0.819107 10.314 0.554026C10.0489 0.288946 9.71114 0.108444 9.34345 0.0353569C8.97576 -0.0377302 8.59466 -0.000118583 8.24835 0.143433C7.90204 0.286985 7.6061 0.530027 7.39795 0.841812C7.1898 1.1536 7.0788 1.52011 7.079 1.89499C7.07926 2.39723 7.27889 2.87882 7.63403 3.23396C7.98917 3.5891 8.47076 3.78873 8.973 3.78899Z" fill="#6BA539"/>
</svg>
