<svg width="18" height="18" viewBox="0 0 18 18" fill="none" xmlns="http://www.w3.org/2000/svg">
<path d="M12.913 1.5C12.1543 1.49839 11.4055 1.67242 10.7252 2.00847C10.045 2.34451 9.45177 2.83345 8.992 3.437C8.53471 2.83469 7.94422 2.3464 7.26675 2.01035C6.58929 1.67431 5.84323 1.49963 5.087 1.5C3.73509 1.50344 2.43986 2.04352 1.48597 3.00152C0.532091 3.95953 -0.00239024 5.25708 -1.24433e-07 6.609C-0.00103662 7.31679 0.100003 8.02104 0.3 8.7H3.018L3.639 7.459C3.67092 7.39667 3.71996 7.34475 3.78036 7.30932C3.84077 7.27389 3.91002 7.25643 3.98 7.259C4.04989 7.26282 4.11715 7.28689 4.17361 7.32826C4.23007 7.36962 4.27329 7.42651 4.298 7.492L4.94 9.204L5.948 4.304C5.96537 4.22355 6.00978 4.15149 6.07383 4.09982C6.13788 4.04814 6.2177 4.01997 6.3 4.02C6.38422 4.02116 6.46536 4.05181 6.52931 4.10663C6.59326 4.16144 6.63597 4.23695 6.65 4.32L7.861 10.977L9.2 7.49C9.22624 7.42222 9.27239 7.36398 9.33236 7.32293C9.39233 7.28188 9.46332 7.25994 9.536 7.26C9.609 7.26031 9.68018 7.28274 9.74017 7.32434C9.80015 7.36594 9.84612 7.42474 9.872 7.493L10.696 9.693L11.21 8.871C11.2419 8.82001 11.2861 8.77782 11.3385 8.7483C11.3909 8.71878 11.4499 8.70286 11.51 8.702H13.41C13.4892 8.56473 13.6116 8.45746 13.758 8.3968C13.9044 8.33615 14.0668 8.32551 14.2199 8.36653C14.373 8.40755 14.5083 8.49794 14.6048 8.62369C14.7012 8.74943 14.7535 8.9035 14.7535 9.062C14.7535 9.22049 14.7012 9.37456 14.6048 9.5003C14.5083 9.62605 14.373 9.71644 14.2199 9.75746C14.0668 9.79848 13.9044 9.78784 13.758 9.72719C13.6116 9.66654 13.4892 9.55926 13.41 9.422H11.71L10.915 10.693C10.8788 10.7493 10.8279 10.7946 10.7678 10.824C10.7077 10.8535 10.6407 10.8659 10.574 10.86C10.5074 10.8531 10.444 10.8277 10.391 10.7867C10.338 10.7457 10.2975 10.6908 10.274 10.628L9.536 8.634L8.076 12.434C8.04992 12.502 8.00384 12.5604 7.94386 12.6017C7.88387 12.6429 7.81279 12.665 7.74 12.665H7.706C7.62791 12.6575 7.5544 12.6248 7.49664 12.5717C7.43887 12.5187 7.40003 12.4482 7.386 12.371L6.278 6.272L5.392 10.572C5.37642 10.6485 5.33639 10.7179 5.27795 10.7696C5.21951 10.8214 5.14582 10.8528 5.068 10.859C4.99001 10.8657 4.91198 10.8465 4.846 10.8044C4.78002 10.7623 4.72976 10.6996 4.703 10.626L3.913 8.519L3.562 9.219C3.53233 9.27905 3.48645 9.32961 3.42955 9.36496C3.37264 9.4003 3.30699 9.41902 3.24 9.419H0.552C1.743 12.337 4.634 14.284 6.884 15.797C7.613 16.287 8.757 17.245 8.769 17.255C8.83158 17.3061 8.91023 17.3334 8.991 17.332C9.08578 17.3318 9.17761 17.299 9.251 17.239C9.84695 16.7269 10.4695 16.2466 11.116 15.8C14.021 13.844 18 11.169 18 6.609C18.0024 5.25708 17.4679 3.95953 16.514 3.00152C15.5601 2.04352 14.2649 1.50344 12.913 1.5Z" fill="#6BA539"/>
</svg>
