<svg fill="#fff" width="24px" height="24px" xmlns="http://www.w3.org/2000/svg">
 <path d="m12 1c-0.5098 0-0.92308 0.44772-0.92308 1s0.41328 1 0.92308 1 0.92308-0.44772 0.92308-1-0.41328-1-0.92308-1zm-4.6154 3c-2.5486 0-7.3846 9.409-7.3846 17 0 0.997 2.0668 2 4.6154 2s4.6154-1.239 4.6154-4c0-0.80932-0.00478-2.4624-0.050481-4.3535l0.68149-0.36914c0.88659-0.48024 1.6121-1.204 2.1382-2.0684 0.52609 0.86433 1.2516 1.5881 2.1382 2.0684l0.68149 0.36914c-0.0457 1.8911-0.05048 3.5442-0.05048 4.3535 0 2.761 2.0668 4 4.6154 4s4.6154-1.003 4.6154-2c0-7.591-4.836-17-7.3846-17-1.1053 0-1.5419 4.3461-1.72 8.4434-1.211-0.6919-1.9724-2.0451-1.9724-3.5332v-2.9102c0.003417-0.2703-0.094317-0.53059-0.27093-0.72155-0.17662-0.19096-0.41707-0.29634-0.66657-0.29212-0.50909 0.0086211-0.91563 0.46214-0.90865 1.0137v2.9102c0 1.4882-0.76135 2.8413-1.9724 3.5332-0.17801-4.0973-0.61469-8.4434-1.72-8.4434z"/>
</svg>
