<svg xmlns="http://www.w3.org/2000/svg" viewBox="0 0 99.67198 117.564"><defs><style>.cls-1{fill:#6d6d6d;}.cls-2{fill:#26495e;}.cls-3{fill:#e5f5fd;}.cls-4{fill:#fddcce;}.cls-5{fill:#fbcbbf;}</style></defs><g id="Layer_2" data-name="Layer 2"><g id="Layer_1-2" data-name="Layer 1"><g id="profile"><g id="Group_32" data-name="Group 32"><g id="Group_31" data-name="Group 31"><g id="Group_30" data-name="Group 30"><g id="Group_29" data-name="Group 29"><path id="Path_144" data-name="Path 144" class="cls-1" d="M66.886,6.344A6.344,6.344,0,0,0,60.542,0H38.681a14.6,14.6,0,0,0-14.6,14.6v0h0V30.81H75.588V14.83a6.344,6.344,0,0,0-6.344-6.344h-.21a2.142,2.142,0,0,1-2.144-2.14v0Z"/><path id="Path_145" data-name="Path 145" class="cls-1" d="M69.243,8.487h-.209a2.142,2.142,0,0,1-2.143-2.141V6.344h0A6.344,6.344,0,0,0,60.547,0h-2.4V30.811H75.584V14.83A6.345,6.345,0,0,0,69.243,8.487Z"/><path id="Path_146" data-name="Path 146" class="cls-2" d="M95.134,80.145a15.215,15.215,0,0,0-6.107-3.683l-18.729-5.93-20.459-.719-20.468.719-18.729,5.93A15.243,15.243,0,0,0,0,90.994v5.12A68.4,68.4,0,0,0,47.48,117.53,70.363,70.363,0,0,0,95.134,80.145Z"/><path id="Path_147" data-name="Path 147" class="cls-2" d="M99.672,96.109V90.992a15.241,15.241,0,0,0-5.656-11.848,68.66105,68.66105,0,0,1-52.882,37.869,69.349,69.349,0,0,0,8.582.551,73.32249,73.32249,0,0,0,8.26-.478A68.425,68.425,0,0,0,99.672,96.109Z"/><path id="Path_148" data-name="Path 148" class="cls-3" d="M51.391,116.539c4.151-8.24,14.959-31.639,11.877-46.255L49.842,65.059,36.404,70.285c-3.177,15.067,8.406,39.466,12.241,46.973Q50.025,116.925,51.391,116.539Z"/><g id="Group_27" data-name="Group 27"><g id="Group_26" data-name="Group 26"><g id="Group_25" data-name="Group 25"><g id="Group_24" data-name="Group 24"><g id="Group_23" data-name="Group 23"><g id="Group_22" data-name="Group 22"><g id="Group_21" data-name="Group 21"><g id="Group_20" data-name="Group 20"><path id="Path_151" data-name="Path 151" class="cls-4" d="M61.3,68.309V56.232H38.367V68.309c0,6.333,11.467,13.25,11.467,13.25S61.3,74.641,61.3,68.309Z"/></g></g></g></g></g></g></g><path id="Path_152" data-name="Path 152" class="cls-4" d="M75.587,28.685H71.2a4.414,4.414,0,0,1-4.414-4.414h0V21.855a4.661,4.661,0,0,0-6.122-4.425,34.511,34.511,0,0,1-21.658,0h-.008a4.66,4.66,0,0,0-6.122,4.425v2.411a4.414,4.414,0,0,1-4.414,4.414H24.08v7.219a3.34,3.34,0,0,0,3.34,3.34,1.1,1.1,0,0,1,1.092,1.037,21.365,21.365,0,0,0,42.643,0,1.1,1.1,0,0,1,1.092-1.037,3.34,3.34,0,0,0,3.34-3.34Z"/><path id="Path_153" data-name="Path 153" class="cls-5" d="M71.203,28.685a4.414,4.414,0,0,1-4.414-4.414h0V21.855a4.661,4.661,0,0,0-6.122-4.425q-1.25.413-2.521.725V41.997A21.361,21.361,0,0,1,47.501,60.154,21.342,21.342,0,0,0,71.066,41.296c.038-.338.067-.677.089-1.017a1.1,1.1,0,0,1,1.092-1.037,3.34,3.34,0,0,0,3.34-3.34V28.683H71.203Z"/></g></g></g></g></g></g></g></g></svg>