<svg fill="#fff" width="24px" height="24px" xmlns="http://www.w3.org/2000/svg">
 <path d="m12.568 4.04c-0.25294 0-0.456 0.20484-0.456 0.456v1.824c0 0.25116 0.20306 0.456 0.456 0.456h3.0068l-3.7905 3.7762c-0.0855 0.0855-0.12825 0.20662-0.12825 0.32775v1.824c0 0.25294 0.20306 0.456 0.456 0.456h7.296c0.25294 0 0.456-0.20306 0.456-0.456v-1.824c0-0.25294-0.20306-0.456-0.456-0.456h-3.4628l3.7905-3.7762c0.0855-0.0855 0.12825-0.20662 0.12825-0.32775v-1.824c0-0.25116-0.20306-0.456-0.456-0.456z"/>
 <path d="m6.795 8.3945c0 5.3557 4.3416 9.6973 9.6973 9.6973 2.6221 0 5.0012-1.0407 6.7467-2.7316-1.4174 4.7794-5.8424 8.2657-11.082 8.2657-6.383 0-11.557-5.1744-11.557-11.557 0-5.8982 4.4182-10.764 10.126-11.47-2.3849 1.7655-3.9306 4.6-3.9306 7.7956z"/>
</svg>
