<svg xmlns="http://www.w3.org/2000/svg" viewBox="0 0 25.99973 26.00042"><defs><style>.cls-1{fill:#79be27;}</style></defs><g id="Layer_2" data-name="Layer 2"><g id="Layer_1-2" data-name="Layer 1"><path id="emojismile" class="cls-1" d="M13.00036,26.00037a12.753,12.753,0,0,1-5.053-1.028,12.72,12.72,0,0,1-6.919-6.919,12.926,12.926,0,0,1,0-10.105,12.72,12.72,0,0,1,6.919-6.92,12.92594,12.92594,0,0,1,10.105,0,12.72,12.72,0,0,1,6.919,6.919,12.926,12.926,0,0,1,0,10.105,12.72,12.72,0,0,1-6.919,6.919A12.75234,12.75234,0,0,1,13.00036,26.00037Zm-1.853-15.971-2.26-3q-.025-.025-.089-.1a.40015.40015,0,0,0-.089-.089.29988.29988,0,0,1-.076-.076q-.03574-.04636-.076-.089a.76741.76741,0,0,0-.076-.064.31413.31413,0,0,0-.089-.051.59956.59956,0,0,1-.092-.034.45311.45311,0,0,0-.1-.038.46558.46558,0,0,0-.1-.013q-.3,0-.762.61l-2.238,2.97A.767.767,0,0,0,5.093,11.14l.00732.00733a.8.8,0,0,0,1.117,0l1.9-2.539,1.9,2.539a.79.79,0,0,0,1.117-1.117Zm9.75,0-2.26-3a1.11894,1.11894,0,0,0-.787-.558q-.3,0-.762.61l-2.235,2.97A.767.767,0,0,0,14.846,11.136l.00732.00733a.8.8,0,0,0,1.117,0l1.9-2.539,1.9,2.539a.79269.79269,0,1,0,1.13-1.112h0Zm-.584,6.221a.824.824,0,0,0-.812.813,8.18916,8.18916,0,0,1-.724.9,6.6363,6.6363,0,0,1-.685.647,2.86067,2.86067,0,0,1-.8.432,8.66156,8.66156,0,0,1-.825.267,5.70942,5.70942,0,0,1-1.015.127q-.672.039-1.1.051t-1.352.013q-.914,0-1.346-.013t-1.1-.051a5.36889,5.36889,0,0,1-1.015-.127q-.343-.091-.826-.266a2.75287,2.75287,0,0,1-.8-.432,7.19961,7.19961,0,0,1-.685-.647,7.7928,7.7928,0,0,1-.724-.9.808.808,0,0,0-1.384-.571.781.781,0,0,0-.241.571,5.179,5.179,0,0,0,2.793,2.958,11.706,11.706,0,0,0,5.328,1.103,11.73109,11.73109,0,0,0,5.332-1.1,5.17293,5.17293,0,0,0,2.793-2.958.824.824,0,0,0-.812-.812Z"/></g></g></svg>