<svg xmlns="http://www.w3.org/2000/svg" viewBox="0 0 62.51702 44.15"><defs><style>.cls-1{fill:#383838;}.cls-2{fill:#171717;}.cls-3{fill:#f9f8d5;}.cls-4{fill:#f3f2a6;}.cls-5{fill:#97d0a2;}.cls-6{fill:#375e7d;}.cls-7{fill:#de626e;}</style></defs><g id="Layer_2" data-name="Layer 2"><g id="Layer_1-2" data-name="Layer 1"><g id="survey"><path id="Path_202" data-name="Path 202" class="cls-1" d="M3.7,44.15H58.817a3.7,3.7,0,0,0,3.7-3.7V3.705a3.7,3.7,0,0,0-3.7-3.7H3.7A3.7,3.7,0,0,0,0,3.705V40.447A3.7,3.7,0,0,0,3.697,44.15Z"/><path id="Path_203" data-name="Path 203" class="cls-2" d="M3.7,0H6.215a3.7,3.7,0,0,0-3.7,3.7V40.447a3.7,3.7,0,0,0,3.7,3.7H3.7a3.7,3.7,0,0,1-3.7-3.7V3.706A3.7,3.7,0,0,1,3.7.006h0Z"/><path id="Path_204" data-name="Path 204" class="cls-3" d="M5.31,5.112H55.819a.208.208,0,0,1,.2.213v33.5a.208.208,0,0,1-.2.213H5.31a.208.208,0,0,1-.2-.213V5.325A.208.208,0,0,1,5.31,5.112Z"/><path id="Path_205" data-name="Path 205" class="cls-4" d="M5.31,5.112H8a.208.208,0,0,0-.2.213v33.5a.208.208,0,0,0,.2.213H5.31a.208.208,0,0,1-.2-.213V5.325A.208.208,0,0,1,5.31,5.112Z"/><g id="Group_42" data-name="Group 42"><path id="Path_206" data-name="Path 206" class="cls-5" d="M43.668,35.974a1.212,1.212,0,0,1-.723-.239l-2.687-1.992a1.216,1.216,0,1,1,1.448-1.954l1.778,1.317,2.944-3.422a1.216,1.216,0,1,1,1.8761,1.54753L48.271,31.27l-3.682,4.279a1.213,1.213,0,0,1-.922.423Z"/></g><g id="Group_43" data-name="Group 43"><path id="Path_207" data-name="Path 207" class="cls-6" d="M12.142,33.834H35.027a1.216,1.216,0,1,0,0-2.432H12.142a1.216,1.216,0,1,0,0,2.432Z"/></g><g id="Group_44" data-name="Group 44"><path id="Path_208" data-name="Path 208" d="M59.239,24.169a1.216,1.216,0,0,0,1.216-1.216h0V21.197a1.216,1.216,0,0,0-2.432,0v1.756A1.216,1.216,0,0,0,59.239,24.169Z"/></g><g id="Group_45" data-name="Group 45"><path id="Path_212" data-name="Path 212" class="cls-5" d="M43.668,16.644a1.21207,1.21207,0,0,1-.723-.239l-2.687-1.99a1.216,1.216,0,1,1,1.448-1.954l1.778,1.317,2.944-3.422a1.216,1.216,0,1,1,1.8761,1.54754L48.271,11.942l-3.682,4.279A1.213,1.213,0,0,1,43.668,16.644Z"/></g><g id="Group_46" data-name="Group 46"><path id="Path_213" data-name="Path 213" class="cls-6" d="M12.142,14.505H35.027a1.216,1.216,0,1,0,.00189-2.432H12.142a1.216,1.216,0,0,0,0,2.432Z"/></g><g id="Group_47" data-name="Group 47"><path id="Path_214" data-name="Path 214" class="cls-6" d="M12.142,24.169H35.027a1.216,1.216,0,0,0,0-2.432H12.142a1.216,1.216,0,0,0,0,2.432Z"/></g><g id="Group_50" data-name="Group 50"><g id="Group_48" data-name="Group 48"><path id="Path_215" data-name="Path 215" class="cls-7" d="M46.62,26.321a1.216,1.216,0,0,0,.86-2.076l-4.3-4.3a1.21623,1.21623,0,1,0-1.72,1.72l4.3,4.3A1.21207,1.21207,0,0,0,46.62,26.321Z"/></g><g id="Group_49" data-name="Group 49"><path id="Path_216" data-name="Path 216" class="cls-7" d="M42.315,26.321a1.21207,1.21207,0,0,0,.86-.356l4.3-4.3a1.21623,1.21623,0,1,0-1.72-1.72l-4.3,4.3a1.216,1.216,0,0,0,.86,2.076Z"/></g></g></g></g></g></svg>