<svg width="25" height="24" viewBox="0 0 25 24" fill="none" xmlns="http://www.w3.org/2000/svg">
<g clip-path="url(#clip0_301_83)">
<path d="M20.489 3.513C18.8106 1.83511 16.6724 0.692568 14.3448 0.229825C12.0171 -0.232919 9.60446 0.00492239 7.41195 0.913275C5.21943 1.82163 3.34549 3.3597 2.02707 5.33302C0.708645 7.30633 0.00494385 9.62627 0.00494385 11.9995C0.00494385 14.3727 0.708645 16.6927 2.02707 18.666C3.34549 20.6393 5.21943 22.1774 7.41195 23.0857C9.60446 23.9941 12.0171 24.2319 14.3448 23.7692C16.6724 23.3064 18.8106 22.1639 20.489 20.486C22.7387 18.2347 24.0025 15.1822 24.0025 11.9995C24.0025 8.81679 22.7387 5.76432 20.489 3.513V3.513ZM19.537 6.582C19.6955 6.49068 19.8776 6.44843 20.0602 6.46059C20.2427 6.47275 20.4176 6.53878 20.5626 6.65031C20.7076 6.76185 20.8163 6.91389 20.8749 7.08721C20.9335 7.26052 20.9394 7.44733 20.8919 7.624C20.8443 7.80067 20.7454 7.95926 20.6077 8.07973C20.47 8.2002 20.2997 8.27713 20.1183 8.30078C19.9369 8.32444 19.7525 8.29376 19.5885 8.21263C19.4245 8.1315 19.2883 8.00357 19.197 7.845C19.0752 7.63245 19.0426 7.38031 19.1064 7.14378C19.1701 6.90725 19.3249 6.70561 19.537 6.583V6.582ZM1.84901 12C1.84901 11.8174 1.90314 11.639 2.00456 11.4872C2.10598 11.3354 2.25013 11.2171 2.41879 11.1473C2.58745 11.0774 2.77303 11.0591 2.95208 11.0947C3.13112 11.1303 3.29558 11.2183 3.42467 11.3473C3.55375 11.4764 3.64166 11.6409 3.67727 11.8199C3.71289 11.999 3.69461 12.1846 3.62475 12.3532C3.55489 12.5219 3.43658 12.666 3.2848 12.7674C3.13301 12.8689 2.95456 12.923 2.77201 12.923C2.52746 12.9222 2.29315 12.8247 2.12022 12.6518C1.9473 12.4789 1.8498 12.2446 1.84901 12V12ZM4.46801 17.417C4.30947 17.5083 4.12741 17.5506 3.94485 17.5384C3.7623 17.5262 3.58745 17.4602 3.44242 17.3487C3.29739 17.2371 3.1887 17.0851 3.13008 16.9118C3.07147 16.7385 3.06557 16.5517 3.11313 16.375C3.16069 16.1983 3.25957 16.0397 3.39727 15.9193C3.53497 15.7988 3.7053 15.7219 3.88673 15.6982C4.06815 15.6746 4.25251 15.7052 4.4165 15.7864C4.58049 15.8675 4.71673 15.9954 4.80801 16.154C4.9301 16.3666 4.96287 16.619 4.89913 16.8558C4.83539 17.0926 4.68035 17.2944 4.46801 17.417ZM4.80801 7.846C4.71673 8.00457 4.58049 8.1325 4.4165 8.21363C4.25251 8.29476 4.06815 8.32544 3.88673 8.30178C3.7053 8.27813 3.53497 8.2012 3.39727 8.08073C3.25957 7.96026 3.16069 7.80167 3.11313 7.625C3.06557 7.44833 3.07147 7.26152 3.13008 7.08821C3.1887 6.91489 3.29739 6.76285 3.44242 6.65131C3.58745 6.53978 3.7623 6.47375 3.94485 6.46159C4.12741 6.44943 4.30947 6.49168 4.46801 6.583C4.67955 6.70636 4.83389 6.90817 4.89755 7.14463C4.96121 7.38109 4.92903 7.63312 4.80801 7.846V7.846ZM6.92801 3.208C7.08655 3.11668 7.26861 3.07443 7.45116 3.08659C7.63372 3.09875 7.80856 3.16478 7.95359 3.27631C8.09862 3.38785 8.20732 3.53989 8.26593 3.71321C8.32454 3.88652 8.33044 4.07333 8.28288 4.25C8.23533 4.42667 8.13644 4.58526 7.99874 4.70573C7.86104 4.8262 7.69071 4.90313 7.50929 4.92678C7.32786 4.95044 7.1435 4.91976 6.97951 4.83863C6.81552 4.7575 6.67928 4.62957 6.58801 4.471C6.46591 4.25836 6.43314 4.00598 6.49688 3.76921C6.56062 3.53244 6.71566 3.33061 6.92801 3.208V3.208ZM6.47801 9.595L7.37801 8.06L12.87 11.343V19.385H11.079V12.265L6.47801 9.595ZM8.19101 20.458C8.09973 20.6166 7.96349 20.7445 7.7995 20.8256C7.63551 20.9068 7.45115 20.9374 7.26973 20.9138C7.0883 20.8901 6.91797 20.8132 6.78027 20.6927C6.64257 20.5723 6.54369 20.4137 6.49613 20.237C6.44857 20.0603 6.45447 19.8735 6.51308 19.7002C6.5717 19.5269 6.68039 19.3749 6.82542 19.2633C6.97045 19.1518 7.1453 19.0858 7.32785 19.0736C7.51041 19.0614 7.69247 19.1037 7.85101 19.195C8.0622 19.3187 8.21613 19.5206 8.27941 19.7571C8.34268 19.9935 8.3102 20.2454 8.18901 20.458H8.19101ZM12.004 22.158C11.8215 22.158 11.643 22.1039 11.4912 22.0024C11.3394 21.901 11.2211 21.7569 11.1513 21.5882C11.0814 21.4196 11.0631 21.234 11.0987 21.0549C11.1344 20.8759 11.2223 20.7114 11.3513 20.5823C11.4804 20.4533 11.6449 20.3653 11.8239 20.3297C12.003 20.2941 12.1886 20.3124 12.3572 20.3823C12.5259 20.4521 12.67 20.5704 12.7715 20.7222C12.8729 20.874 12.927 21.0524 12.927 21.235C12.9252 21.479 12.8271 21.7125 12.654 21.8846C12.481 22.0566 12.247 22.1535 12.003 22.154L12.004 22.158ZM12.004 3.696C11.8215 3.696 11.643 3.64187 11.4912 3.54045C11.3394 3.43903 11.2211 3.29487 11.1513 3.12622C11.0814 2.95756 11.0631 2.77198 11.0987 2.59293C11.1344 2.41389 11.2223 2.24942 11.3513 2.12034C11.4804 1.99126 11.6449 1.90335 11.8239 1.86774C12.003 1.83212 12.1886 1.8504 12.3572 1.92026C12.5259 1.99012 12.67 2.10842 12.7715 2.26021C12.8729 2.412 12.927 2.59045 12.927 2.773C12.9252 3.01703 12.8271 3.25047 12.654 3.42256C12.481 3.59465 12.247 3.69148 12.003 3.692L12.004 3.696ZM17.081 20.796C16.9225 20.8873 16.7404 20.9296 16.5578 20.9174C16.3753 20.9052 16.2004 20.8392 16.0554 20.7277C15.9104 20.6161 15.8017 20.4641 15.7431 20.2908C15.6845 20.1175 15.6786 19.9307 15.7261 19.754C15.7737 19.5773 15.8726 19.4187 16.0103 19.2983C16.148 19.1778 16.3183 19.1009 16.4997 19.0772C16.6812 19.0536 16.8655 19.0842 17.0295 19.1654C17.1935 19.2465 17.3297 19.3744 17.421 19.533C17.5417 19.7455 17.5734 19.9971 17.5094 20.233C17.4453 20.4688 17.2906 20.6697 17.079 20.792L17.081 20.796ZM17.421 4.469C17.3297 4.62757 17.1935 4.7555 17.0295 4.83663C16.8655 4.91776 16.6812 4.94844 16.4997 4.92478C16.3183 4.90113 16.148 4.8242 16.0103 4.70373C15.8726 4.58326 15.7737 4.42467 15.7261 4.248C15.6786 4.07133 15.6845 3.88452 15.7431 3.71121C15.8017 3.53789 15.9104 3.38585 16.0554 3.27431C16.2004 3.16278 16.3753 3.09675 16.5578 3.08459C16.7404 3.07243 16.9225 3.11468 17.081 3.206C17.2913 3.3295 17.4447 3.53066 17.5081 3.76614C17.5715 4.00163 17.5399 4.25261 17.42 4.465L17.421 4.469ZM20.796 17.081C20.7047 17.2396 20.5685 17.3675 20.4045 17.4486C20.2405 17.5298 20.0562 17.5604 19.8747 17.5368C19.6933 17.5131 19.523 17.4362 19.3853 17.3157C19.2476 17.1953 19.1487 17.0367 19.1011 16.86C19.0536 16.6833 19.0595 16.4965 19.1181 16.3232C19.1767 16.1499 19.2854 15.9979 19.4304 15.8863C19.5754 15.7748 19.7503 15.7088 19.9328 15.6966C20.1154 15.6844 20.2975 15.7267 20.456 15.818C20.6663 15.9415 20.8197 16.1427 20.8831 16.3781C20.9465 16.6136 20.9149 16.8646 20.795 17.077L20.796 17.081ZM21.234 12.927C21.0515 12.927 20.873 12.8729 20.7212 12.7714C20.5694 12.67 20.4511 12.5259 20.3813 12.3572C20.3114 12.1886 20.2931 12.003 20.3287 11.8239C20.3644 11.6449 20.4523 11.4804 20.5813 11.3513C20.7104 11.2223 20.8749 11.1343 21.0539 11.0987C21.233 11.0631 21.4186 11.0814 21.5872 11.1513C21.7559 11.2211 21.9 11.3394 22.0015 11.4912C22.1029 11.643 22.157 11.8214 22.157 12.004C22.1557 12.2484 22.0578 12.4823 21.8847 12.6548C21.7117 12.8274 21.4774 12.9245 21.233 12.925L21.234 12.927Z" fill="#A1A1A1"/>
</g>
<defs>
<clipPath id="clip0_301_83">
<rect width="24.002" height="24" fill="white"/>
</clipPath>
</defs>
</svg>
