<svg xmlns="http://www.w3.org/2000/svg" viewBox="0 0 608.03212 359.56206"><defs><style>.cls-1{fill:#242438;}.cls-1,.cls-10,.cls-13,.cls-14,.cls-16,.cls-2,.cls-20,.cls-23,.cls-27,.cls-4,.cls-5,.cls-6,.cls-7,.cls-8,.cls-9{isolation:isolate;}.cls-2,.cls-24{fill:#4d54a4;}.cls-3,.cls-7{fill:#fff;}.cls-4{fill:#c1796b;}.cls-18,.cls-5{fill:#eebfa5;}.cls-6{fill:#e39b5a;}.cls-8{fill:#3c455a;}.cls-11,.cls-13,.cls-14,.cls-15,.cls-19,.cls-22,.cls-25,.cls-9{fill:none;}.cls-9{stroke:#0d122e;}.cls-11,.cls-14,.cls-15,.cls-25,.cls-9{stroke-miterlimit:10;}.cls-10{fill:#8ec3cb;}.cls-11{stroke:#4d54a4;}.cls-11,.cls-25{stroke-width:2px;}.cls-12{fill:#1e2030;}.cls-13{stroke:#cdd2d9;stroke-width:5px;}.cls-13,.cls-19,.cls-22{stroke-linejoin:round;}.cls-14{stroke:#7a4d9f;stroke-width:9px;}.cls-14,.cls-19,.cls-22{stroke-linecap:round;}.cls-15{stroke:#d3d3d3;}.cls-15,.cls-19{stroke-width:6px;}.cls-16,.cls-17{fill:#cdd2d9;}.cls-19{stroke:#d34f4e;}.cls-20,.cls-21{fill:#d34f4e;}.cls-22{stroke:#fff;stroke-width:3px;}.cls-25{stroke:#b2b3b2;}.cls-26{fill:#4da446;}.cls-27{fill:#bec6cc;}</style></defs><g id="Layer_2" data-name="Layer 2"><g id="Layer_1-2" data-name="Layer 1"><path class="cls-1" d="M560.87216,20.81193h47.3962a0,0,0,0,1,0,0v59.9362a0,0,0,0,1,0,0H560.87216a29.96807,29.96807,0,0,1-29.96807-29.96807V50.78A29.96807,29.96807,0,0,1,560.87216,20.81193Z" transform="translate(1111.36816 233.75383) rotate(-166.43343)"/><path class="cls-2" d="M485.168,2.051h47.3962a0,0,0,0,1,0,0V61.9872a0,0,0,0,1,0,0H485.168A29.96807,29.96807,0,0,1,455.2,32.01913v-.00006A29.96807,29.96807,0,0,1,485.168,2.051Z" transform="translate(21.29115 -114.95895) rotate(13.56657)"/><path class="cls-3" d="M496.121,52.73687a.50053.50053,0,0,1-.11328-.0127L487.372,50.72173a.50044.50044,0,0,1-.37451-.6001l8.8125-37.99755a.5.5,0,0,1,.4873-.38721.51869.51869,0,0,1,.11279.01269l8.63575,2.00293a.50062.50062,0,0,1,.37451.6001l-8.8125,37.99707A.50049.50049,0,0,1,496.121,52.73687Z"/><path class="cls-3" d="M496.29706,12.23707l8.63573,2.00274-8.81212,37.99726L487.485,50.23431l8.8121-37.99724m0-1a1,1,0,0,0-.97418.77408L486.5108,50.00838a1,1,0,0,0,.74823,1.20008l8.63572,2.00276a1,1,0,0,0,1.20007-.74823l8.81212-37.99725a1,1,0,0,0-.74823-1.20008L496.523,11.26292a.99961.99961,0,0,0-.22589-.02585Z"/><path class="cls-3" d="M514.20642,41.461a.49745.49745,0,0,1-.11328-.0127l-37.99707-8.812a.50043.50043,0,0,1-.37451-.60009l2.00293-8.63575a.50116.50116,0,0,1,.6001-.37451l37.99707,8.812a.50045.50045,0,0,1,.37451.6001l-2.00293,8.63574A.50049.50049,0,0,1,514.20642,41.461Z"/><path class="cls-3" d="M478.21161,23.51314l37.99725,8.81211L514.20612,40.961l-37.99726-8.81212,2.00275-8.63573m-.00086-1.00022a1.00039,1.00039,0,0,0-.97329.7743L475.23471,31.923a1,1,0,0,0,.74823,1.20007l37.99725,8.81212a1,1,0,0,0,1.20008-.74823l2.00274-8.63574a1,1,0,0,0-.74823-1.20007L478.43753,22.539a1.00339,1.00339,0,0,0-.22678-.02607Z"/><path class="cls-4" d="M548.349,80.56206v-2.2484c3.85987-6.7516,1.85987-9.7516,1.85987-9.7516l-4-2c-2-1-5,1-5,1-2,3,0,7.00637,0,7.00637-3-1.00637-1,1.99363-1,1.99363l2,2v3h6Z"/><path class="cls-4" d="M472.20886,98.56206c-1,21,9,19,9,19l1.472,3.46229,9.1743.65531v-6.366a26.501,26.501,0,0,0,6.27728-5.1928V98.00155l-21.92357-3.43949Z"/><path class="cls-1" d="M266.59552,56.25819h6.95593a5.70031,5.70031,0,0,1,5.70031,5.70031V62.722a5.70031,5.70031,0,0,1-5.70031,5.70031h-7.45259a0,0,0,0,1,0,0V56.75484A.49666.49666,0,0,1,266.59552,56.25819Z" transform="translate(-6.25652 41.47966) rotate(-8.60085)"/><path class="cls-1" d="M309.36137,49.29331h6.95593a5.70031,5.70031,0,0,1,5.70031,5.70031v.76352a5.70031,5.70031,0,0,1-5.70031,5.70031h-7.45259a0,0,0,0,1,0,0V49.79a.49666.49666,0,0,1,.49666-.49666Z" transform="translate(635.61633 62.95379) rotate(171.39915)"/><path class="cls-5" d="M342.20886,100.56206l-1-7-2-6,1-5,3-1c4-1,5,2,5,2l1,8-2,2v2Z"/><polygon class="cls-5" points="383.209 266.562 386.209 288.562 403.209 339.562 411.05 339.562 405.209 281.562 409.209 264.562 383.209 266.562"/><path class="cls-5" d="M378.20886,266.56206l-3,18c-1,23-6,61-6,61l-8-1-8-84Z"/><path class="cls-6" d="M396.38979,119.14764c27.81907,14.41442,19.81907,56.41442,19.81907,56.41442,0,40,2,58,2,58,0,26,10,32.465,10,32.465-54,6.535-83-8.465-83-8.465-5-16,26-112,26-112l-23-2-7.27388-42.375,7.56688-6.9371,8.707,31.3121,17.20383-3.5c10.79617-3.5,12.9127-1.80877,12.9127-1.80877Z"/><path class="cls-5" d="M376.70886,103.06206c1,12,6.5,13.5,6.5,13.5,6,1,4.5,5.5,4.5,5.5l8.5-.5v-5c6.5-.5,5-7,5-7l1-10-12.75-5.3121Z"/><path class="cls-1" d="M377.20886,102.56206c-7-5-4-10-4-10,2-4,7-4,7-4l1-2c5-6,14-1,14-1,8,2,11,10,11,10,3,8,1,11,1,11-4,5-1,8-1,8,5,6-10,3-10,3-2-1,1-3,1-3l1-1a7.80872,7.80872,0,0,0,2-5c-1-1-1-4-1-4a22.576,22.576,0,0,1-14-7h0c-4.2018,4.727-8,5-8,5v1c0,5,1,7,1,7,3,5,1,6,1,6a27.67326,27.67326,0,0,1-8-1c-4-3-1-7-1-7,5-4,3-13,3-13Z"/><path class="cls-7" d="M387.20886,121.56206c-14,8-19,73-19,73,0,26-18,65-18,65,6,5,35,8,44,8l-5-63c0-32,7-50,7-50,7-19,.90446-33,.90446-33Z"/><polygon class="cls-1" points="361.209 344.562 369.209 345.562 369.209 351.562 349.209 354.562 361.209 344.562"/><path class="cls-1" d="M403.20886,339.56206l8-1,1,7-12.242,7h-8.71337Z"/><path class="cls-2" d="M114.00749,38.18141l-8.48792,1.74342C103.5695,28.89172,98.046,33.58337,98.046,33.58337c-1.7944,3.67162,3.45541,25.0795,3.45541,25.0795,2.83957,5.00654,6.49851.8249,6.49851.8249.63975-1.91-.14028-6.32321-.14028-6.32321l8.48792-1.74342Z"/><path class="cls-8" d="M114.368,26.97451l-2.31061.1738c-3.4092.065-1.60245,4.78405-1.60245,4.78405l5.39313,27.722c.07014,3.1616,2.76944,1.84493,2.76944,1.84493l2.39829-.58884Z"/><line class="cls-9" x1="274.20886" y1="18.36136" x2="251.76428" y2="21.31993"/><path class="cls-10" d="M242.22418,27.05745,226.7427,44.47074a1.65142,1.65142,0,0,1-.95809.52244L129.64542,61.38185a1.52567,1.52567,0,0,0-1.31985,1.6349l.54834,4.88565a1.51722,1.51722,0,0,1-1.22875,1.61685l-3.06092.69237a1.62374,1.62374,0,0,1-1.97994-1.19233L113.185,20.93512a1.50807,1.50807,0,0,1,1.21134-1.73l2.92262-.66108a1.62112,1.62112,0,0,1,1.9847,1.21787l.61933,3.504a1.61447,1.61447,0,0,0,1.8936,1.23593L217.85072,8.1311a1.73524,1.73524,0,0,1,1.02235.13581l22.24331,10.3832a1.45174,1.45174,0,0,1,.83282,1.0516h0a1.61213,1.61213,0,0,0,1.86273,1.2409l8.8839-1.35042a1.63134,1.63134,0,0,1,1.81783,1.05869l.15535.48845a1.51224,1.51224,0,0,1-1.35259,1.91764l-9.365,1.09525a1.52646,1.52646,0,0,0-1.39749,1.73544l.004.02269A1.36359,1.36359,0,0,1,242.22418,27.05745Z"/><line class="cls-11" x1="213.11963" y1="47.36079" x2="211.16956" y2="36.32768"/><line class="cls-11" x1="198.16827" y1="49.86011" x2="196.99822" y2="43.24024"/><line class="cls-11" x1="181.51231" y1="52.39195" x2="178.85234" y2="40.1072"/><line class="cls-11" x1="165.88612" y1="55.22043" x2="164.71607" y2="48.60057"/><line class="cls-11" x1="149.23016" y1="57.75227" x2="147.6701" y2="48.92578"/><path class="cls-4" d="M231.20886,44.56206c-2-1-2,1-2,1l2,2,2,2V52.0334l5-1.47134,2-7c0-5-2-7-2-7a13.05336,13.05336,0,0,0-8,1h0C228.20886,40.56206,231.20886,44.56206,231.20886,44.56206Z"/><path class="cls-4" d="M129.06874,70.56206v-2.2484c-3.85988-6.7516-1.85988-9.7516-1.85988-9.7516l4-2c2-1,5,1,5,1,2,3,0,7.00637,0,7.00637,3-1.00637,1,1.99363,1,1.99363l-2,2v3h-6Z"/><polygon class="cls-1" points="214.209 352.562 201.209 346.562 202.209 337.562 211.178 337.562 210.209 342.562 219.642 352.562 214.209 352.562"/><polygon class="cls-10" points="166.209 238.562 161.209 288.562 132.209 260.562 122.209 263.562 164.209 317.562 195.209 248.562 201.209 341.562 210.699 341.562 223.209 236.562 167.209 235.562 166.209 238.562"/><polygon class="cls-2" points="128.209 70.562 132.209 115.562 170.209 136.562 148.209 236.562 236.209 240.562 216.209 135.562 237.209 105.562 239.209 49.562 232.209 51.562 219.209 96.562 201.209 109.562 173.209 111.562 147.209 99.562 136.559 70.562 128.209 70.562"/><path class="cls-4" d="M205.20886,87.56206c1,21-9,19-9,19l-1.472,3.46229-9.1743.65531v-6.366a26.50069,26.50069,0,0,1-6.27728-5.1928V87.00155l21.92356-3.43949Z"/><path class="cls-1" d="M212.20886,62.56206a8.75992,8.75992,0,0,0,2,6c3,15-4,18-4,18a16.08384,16.08384,0,0,1-12-1,30.7643,30.7643,0,0,0-17,3l1.17119,13.48908c-22.17119-14.48908-10.17119-29.48908-10.17119-29.48908,10-8,26-6,26-6C211.20886,66.56206,212.20886,62.56206,212.20886,62.56206Z"/><polygon class="cls-1" points="467.209 359.562 480.209 353.562 479.209 344.562 470.24 344.562 471.209 349.562 461.776 359.562 467.209 359.562"/><polygon class="cls-1" points="496.209 359.562 509.209 353.562 508.209 344.562 499.24 344.562 500.209 349.562 490.776 359.562 496.209 359.562"/><polygon class="cls-2" points="515.209 245.562 510.209 349.562 499.209 349.562 486.209 255.562 480.209 348.562 470.718 348.562 458.209 243.562 514.209 242.562 515.209 245.562"/><polygon class="cls-10" points="549.209 80.562 545.209 125.562 507.209 146.562 529.209 246.562 441.209 250.562 468.209 147.562 449.209 165.562 458.209 176.562 452.209 183.562 431.209 166.562 471.209 120.562 504.209 121.562 530.209 109.562 540.859 80.562 549.209 80.562"/><path class="cls-1" d="M474.20886,85.56206c-6-1-8,2-8,2-2,8,1,10,1,10a16.08384,16.08384,0,0,0,12-1,30.7643,30.7643,0,0,1,17,3l-1.17117,13.48908c15.17117-12.48908,2.17117-22.48908,2.17117-25.48908-3-6-11-3-11-3C478.20886,82.56206,474.20886,85.56206,474.20886,85.56206Z"/><rect class="cls-12" x="57.91189" y="136.0816" width="98.78236" height="132.22169" transform="translate(33.55686 -14.50373) rotate(9.16028)"/><rect class="cls-3" x="62.25737" y="141.32921" width="89.91572" height="121.8033" transform="matrix(0.98725, 0.1592, -0.1592, 0.98725, 33.56186, -14.48925)"/><path class="cls-5" d="M17.20886,265.56206c7,76,8,80,8,80h8.22293l7.10828-80Z"/><polygon class="cls-5" points="44.897 265.562 50.209 283.562 47.553 335.613 56.209 337.562 71.209 285.562 69.202 265.562 44.897 265.562"/><polygon class="cls-1" points="33.432 345.562 33.209 351.562 19.209 357.562 25.209 345.562 33.432 345.562"/><polygon class="cls-1" points="47.553 335.613 44.897 342.033 58.053 347.537 56.209 337.562 47.553 335.613"/><polyline class="cls-13" points="259.209 63.562 245.209 66.562 255.209 123.562"/><polyline class="cls-13" points="329.555 52.662 343.78 51.028 352.532 108.233"/><path class="cls-14" d="M254.20886,120.56206c14.59677,77.5,46.38282,87.95014,67.44709,84,20.99679-3.93747,43.79028-21.5,30.70352-100.5"/><line class="cls-15" x1="196.20886" y1="142.56206" x2="209.20886" y2="203.56206"/><circle class="cls-1" cx="197.87553" cy="151.8954" r="21.66667"/><circle class="cls-16" cx="197.87553" cy="151.8954" r="17.15278"/><circle class="cls-1" cx="197.87553" cy="151.8954" r="5.71759"/><path class="cls-17" d="M266.20886,56.56206l2,13c-14,4-11-9-11-9C259.20886,55.56206,266.20886,56.56206,266.20886,56.56206Z"/><path class="cls-17" d="M318.20886,48.56206l2,12v.65605c14-1.65605,10.04578-8.6362,10.04578-8.6362C328.20886,44.56206,318.20886,48.56206,318.20886,48.56206Z"/><path class="cls-18" d="M345.20886,174.56206l-3,2-1,5,2,4h5.52866c5.47134-3,8.47134-2,8.47134-2v-7h-3l-2.77707-2c-3.22293-2-2.22293,1-2.22293,1l1,1Z"/><polygon class="cls-6" points="356.209 174.562 356.209 186.524 394.209 183.562 397.209 166.562 356.209 174.562"/><path class="cls-14" d="M209.20886,203.56206c10.5,53.5,38.22786,75.41962,68.5,71.5,25.134-3.25433,43-22,43.5-66.5"/><rect class="cls-19" x="286.97553" y="280.56206" width="29.46667" height="30.97778"/><rect class="cls-20" x="263.55331" y="291.13984" width="76.31111" height="57.42222" rx="8.10177"/><rect class="cls-3" x="297.0531" y="302.72906" width="8.55566" height="34.24414" rx="0.5"/><path class="cls-3" d="M305.10886,303.22872v33.24445h-7.55555V303.22872h7.55555m0-1h-7.55555a1,1,0,0,0-1,1v33.24445a1,1,0,0,0,1,1h7.55555a1,1,0,0,0,1-1V303.22872a1,1,0,0,0-1-1Z"/><rect class="cls-3" x="284.20886" y="315.57281" width="34.24463" height="8.55566" rx="0.5"/><path class="cls-3" d="M317.95331,316.07317v7.55557H284.70886v-7.55557h33.24445m0-1H284.70886a1,1,0,0,0-1,1v7.55557a1,1,0,0,0,1,1h33.24445a1,1,0,0,0,1-1v-7.55557a1,1,0,0,0-1-1Z"/><path class="cls-21" d="M464.1814,209.66672c14.18746,19.19134,52.46746,35.89534,52.46746,35.89534,29.232-27.84,34.8-52.2,34.8-52.2,2.784-12.528-3.69119-20.85223-3.69119-20.85223Z"/><circle class="cls-21" cx="486.02486" cy="194.75406" r="26.448"/><circle class="cls-21" cx="526.39286" cy="185.01006" r="26.448"/><polyline class="cls-22" points="470.365 207.63 489.853 204.15 494.029 190.23 511.429 219.462 517.693 174.222 528.829 195.102 546.229 191.622"/><g class="cls-23"><path class="cls-24" d="M142.016,184.74468l-42.894-7.21435a.50046.50046,0,0,1-.41016-.57618l1.20655-7.17334a.5002.5002,0,0,1,.49267-.417.4889.4889,0,0,1,.0835.00684l42.894,7.21386a.50046.50046,0,0,1,.41016.57618l-1.20655,7.17382a.50034.50034,0,0,1-.49316.417A.52816.52816,0,0,1,142.016,184.74468Z"/><path class="cls-24" d="M100.41144,169.86367l42.89429,7.21411-1.20649,7.17368L99.205,177.03734l1.20648-7.17367m0-1a1,1,0,0,0-.98615.83414l-1.20648,7.1737a1,1,0,0,0,.82031,1.152l42.89429,7.21411a1,1,0,0,0,1.152-.82028l1.20648-7.17371a.99994.99994,0,0,0-.82031-1.152l-42.89429-7.21412a1.00039,1.00039,0,0,0-.16583-.01385Z"/></g><g class="cls-23"><path class="cls-24" d="M137.31824,210.63189l-42.89453-7.21436a.5.5,0,0,1-.41016-.57617l1.20654-7.17383a.50034.50034,0,0,1,.49317-.417.528.528,0,0,1,.083.00684l42.89405,7.21435a.5.5,0,0,1,.41015.57617l-1.20605,7.17383a.50034.50034,0,0,1-.49316.417A.52925.52925,0,0,1,137.31824,210.63189Z"/><path class="cls-24" d="M95.7132,195.75072l42.89428,7.21415-1.20648,7.17367L94.50671,202.9244l1.20649-7.17368m0-1a1,1,0,0,0-.98615.83414l-1.20648,7.17371a.99994.99994,0,0,0,.82031,1.152l42.89429,7.21415a1,1,0,0,0,1.152-.82029l1.20648-7.1737a1,1,0,0,0-.82031-1.152L95.879,194.76458a.99942.99942,0,0,0-.16583-.01386Z"/></g><g class="cls-23"><path class="cls-24" d="M131.69177,236.51421l-42.894-7.21435a.50046.50046,0,0,1-.41016-.57617l1.20655-7.17334a.50021.50021,0,0,1,.49267-.417.48983.48983,0,0,1,.0835.00684l42.894,7.21387a.50045.50045,0,0,1,.41016.57617l-1.20655,7.17383a.50035.50035,0,0,1-.49316.417A.52816.52816,0,0,1,131.69177,236.51421Z"/><path class="cls-24" d="M90.0871,221.63314l42.89422,7.21411-1.20648,7.17368-42.89429-7.21412,1.20655-7.17367m-.00122-1.00015a1.00019,1.00019,0,0,0-.98493.83429L87.89441,228.641a1,1,0,0,0,.82031,1.152l42.89429,7.21411a1,1,0,0,0,1.152-.82028l1.20648-7.17371a1,1,0,0,0-.82031-1.152L90.25293,220.647a1.00727,1.00727,0,0,0-.16705-.014Z"/></g><rect class="cls-25" x="77.31308" y="165.41184" width="11.68685" height="12" transform="translate(29.58109 -11.41786) rotate(9.54687)"/><rect class="cls-25" x="73.31308" y="188.41184" width="11.68685" height="12" transform="translate(33.34034 -10.4359) rotate(9.54687)"/><rect class="cls-25" x="69.31308" y="214.41184" width="11.68685" height="12" transform="translate(37.59716 -9.41239) rotate(9.54687)"/><polygon class="cls-26" points="73.304 215.304 76.079 222.54 74.579 222.005 93.995 213.408 75.572 223.966 74.619 224.512 74.071 223.432 70.563 216.522 73.304 215.304"/><polygon class="cls-26" points="82.304 167.304 85.079 174.54 83.579 174.005 102.995 165.408 84.572 175.966 83.619 176.512 83.071 175.432 79.563 168.522 82.304 167.304"/><ellipse class="cls-5" cx="42.49555" cy="103.33771" rx="16.19556" ry="11.5" transform="translate(-68.41144 116.90952) rotate(-74.62274)"/><path class="cls-5" d="M85.20886,189.56206l-1,7c14,7,16.24841,1,16.24841,1a12.51626,12.51626,0,0,0-6.24841-4c1.78061-.95977,2.04342-1.606,2-2,0-.00009-.11443-1.03845-9-3h0l-2,1Z"/><path class="cls-20" d="M29.20886,117.56206c25,3,24,12,24,12a71.21613,71.21613,0,0,1,10,37l25,22V199.0334c-19-5.47134-28-12.47134-28-12.47134l-12,73,40,6.42676H1.49549C-7.79114,172.56206,29.20886,117.56206,29.20886,117.56206Z"/><path class="cls-1" d="M47.516,87.96249A41.13149,41.13149,0,0,1,37.20886,98.56206c-5,3-6.57469,6.42412-6.57469,6.42412a16.80717,16.80717,0,0,0,2.35176,12.57588c3.22293,5,1.22293,15,1.22293,15-6,16,3,44,3,44,12,30-13,27-13,27-35-9-18-35-18-35,16.64069-15.29129,7.57837-29.30465,9-29-6-19,1-38,1-38,10-24,24-23,24-23,9,2,7.30712,5.2102,7.30712,5.2102l2.69288-1.2102c10,4,5,25,5,25a33.45417,33.45417,0,0,0-1,17c-1,4-1.62254,2.64675-1.62254,2.64675-3.37746-4.64675-12.84573-7.69576-12.84573-7.69576C61.20886,112.56206,47.516,87.96249,47.516,87.96249Z"/><path class="cls-4" d="M467.585,183.32833l1.01864,3.45867-2.44,4.4773-4.1001,1.78582-4.24145-3.5463c-2.27315-5.811-5.21611-6.96819-5.21611-6.96819l4.49007-5.37022,2.30153,1.92432,3.41337.247c3.75543.533,1.06393,2.193,1.06393,2.193l-1.40861.12573Z"/><rect class="cls-10" x="449.79167" y="178.65296" width="10.39846" height="2" transform="translate(21.46175 406.24596) rotate(-49.14132)"/><rect class="cls-10" x="539.79167" y="79.65296" width="10.39846" height="2"/><path class="cls-27" d="M104.81093,133.66707H130.8924a6.61058,6.61058,0,0,1,6.61058,6.61058v6.38942a0,0,0,0,1,0,0H98.20034a0,0,0,0,1,0,0v-6.38942A6.61058,6.61058,0,0,1,104.81093,133.66707Z" transform="translate(24.14066 -17.16719) rotate(9.27817)"/><path class="cls-27" d="M124.18933,127.57867l-7.46033-1.21875a6.90543,6.90543,0,0,0-7.92846,5.70178,2.68712,2.68712,0,0,0,2.21875,3.08526l15.78656,2.579a2.6872,2.6872,0,0,0,3.08526-2.21875v-.00006A6.9055,6.9055,0,0,0,124.18933,127.57867Zm1.98383,4.14c-.2226,1.36267-3.27747,1.99774-6.82318,1.41852-3.54578-.57929-6.23969-2.15351-6.01709-3.51618.22259-1.36261,3.27746-1.99768,6.82324-1.41845C123.70184,128.78185,126.39575,130.35607,126.17316,131.71868Z"/></g></g></svg>